solid OpenSCAD_Model
  facet normal 0.994522 0.104529 0
    outer loop
      vertex 36.801 1.89371 6.12
      vertex 36.1915 7.69273 0
      vertex 36.1915 7.69273 6.12
    endloop
  endfacet
  facet normal 0.994522 0.104529 0
    outer loop
      vertex 36.1915 7.69273 0
      vertex 36.801 1.89371 6.12
      vertex 36.801 1.89371 0
    endloop
  endfacet
  facet normal -0.994522 0.104529 0
    outer loop
      vertex -37 0 0
      vertex -36.1915 7.69273 6.12
      vertex -36.1915 7.69273 0
    endloop
  endfacet
  facet normal -0.994522 0.104529 0
    outer loop
      vertex -36.1915 7.69273 6.12
      vertex -37 0 0
      vertex -37 0 6.12
    endloop
  endfacet
  facet normal 0 1 -0
    outer loop
      vertex 3.86755 36.7973 0
      vertex -3.86755 36.7973 6.12
      vertex 3.86755 36.7973 6.12
    endloop
  endfacet
  facet normal 0 1 0
    outer loop
      vertex -3.86755 36.7973 6.12
      vertex 3.86755 36.7973 0
      vertex -3.86755 36.7973 0
    endloop
  endfacet
  facet normal 0.587785 0.809017 -0
    outer loop
      vertex 24.7578 27.4964 0
      vertex 18.5 32.0429 6.12
      vertex 24.7578 27.4964 6.12
    endloop
  endfacet
  facet normal 0.587785 0.809017 0
    outer loop
      vertex 18.5 32.0429 6.12
      vertex 24.7578 27.4964 0
      vertex 18.5 32.0429 0
    endloop
  endfacet
  facet normal 0.406737 0.913545 -0
    outer loop
      vertex 18.5 32.0429 0
      vertex 11.4336 35.1891 6.12
      vertex 18.5 32.0429 6.12
    endloop
  endfacet
  facet normal 0.406737 0.913545 0
    outer loop
      vertex 11.4336 35.1891 6.12
      vertex 18.5 32.0429 0
      vertex 11.4336 35.1891 0
    endloop
  endfacet
  facet normal -0.587785 0.809017 0
    outer loop
      vertex -18.5 32.0429 0
      vertex -24.7578 27.4964 6.12
      vertex -18.5 32.0429 6.12
    endloop
  endfacet
  facet normal -0.587785 0.809017 0
    outer loop
      vertex -24.7578 27.4964 6.12
      vertex -18.5 32.0429 0
      vertex -24.7578 27.4964 0
    endloop
  endfacet
  facet normal -0.207912 0.978148 0
    outer loop
      vertex -3.86755 36.7973 0
      vertex -11.4336 35.1891 6.12
      vertex -3.86755 36.7973 6.12
    endloop
  endfacet
  facet normal -0.207912 0.978148 0
    outer loop
      vertex -11.4336 35.1891 6.12
      vertex -3.86755 36.7973 0
      vertex -11.4336 35.1891 0
    endloop
  endfacet
  facet normal 0.866025 0.5 0
    outer loop
      vertex 33.8012 15.0493 6.12
      vertex 29.9336 21.7481 0
      vertex 29.9336 21.7481 6.12
    endloop
  endfacet
  facet normal 0.866025 0.5 0
    outer loop
      vertex 29.9336 21.7481 0
      vertex 33.8012 15.0493 6.12
      vertex 33.8012 15.0493 0
    endloop
  endfacet
  facet normal 0.951057 0.309017 0
    outer loop
      vertex 36.1915 7.69273 6.12
      vertex 33.8012 15.0493 0
      vertex 33.8012 15.0493 6.12
    endloop
  endfacet
  facet normal 0.951057 0.309017 0
    outer loop
      vertex 33.8012 15.0493 0
      vertex 36.1915 7.69273 6.12
      vertex 36.1915 7.69273 0
    endloop
  endfacet
  facet normal 0.743145 0.669131 0
    outer loop
      vertex 29.9336 21.7481 6.12
      vertex 24.7578 27.4964 0
      vertex 24.7578 27.4964 6.12
    endloop
  endfacet
  facet normal 0.743145 0.669131 0
    outer loop
      vertex 24.7578 27.4964 0
      vertex 29.9336 21.7481 6.12
      vertex 29.9336 21.7481 0
    endloop
  endfacet
  facet normal 0.207912 0.978148 -0
    outer loop
      vertex 11.4336 35.1891 0
      vertex 3.86755 36.7973 6.12
      vertex 11.4336 35.1891 6.12
    endloop
  endfacet
  facet normal 0.207912 0.978148 0
    outer loop
      vertex 3.86755 36.7973 6.12
      vertex 11.4336 35.1891 0
      vertex 3.86755 36.7973 0
    endloop
  endfacet
  facet normal -0.866025 0.5 0
    outer loop
      vertex -33.8012 15.0493 0
      vertex -29.9336 21.7481 6.12
      vertex -29.9336 21.7481 0
    endloop
  endfacet
  facet normal -0.866025 0.5 0
    outer loop
      vertex -29.9336 21.7481 6.12
      vertex -33.8012 15.0493 0
      vertex -33.8012 15.0493 6.12
    endloop
  endfacet
  facet normal -0.743145 0.669131 0
    outer loop
      vertex -29.9336 21.7481 0
      vertex -24.7578 27.4964 6.12
      vertex -24.7578 27.4964 0
    endloop
  endfacet
  facet normal -0.743145 0.669131 0
    outer loop
      vertex -24.7578 27.4964 6.12
      vertex -29.9336 21.7481 0
      vertex -29.9336 21.7481 6.12
    endloop
  endfacet
  facet normal -0.951057 0.309017 0
    outer loop
      vertex -36.1915 7.69273 0
      vertex -33.8012 15.0493 6.12
      vertex -33.8012 15.0493 0
    endloop
  endfacet
  facet normal -0.951057 0.309017 0
    outer loop
      vertex -33.8012 15.0493 6.12
      vertex -36.1915 7.69273 0
      vertex -36.1915 7.69273 6.12
    endloop
  endfacet
  facet normal 0 0 1
    outer loop
      vertex 36.801 -1.89371 6.12
      vertex 30.17 0 6.12
      vertex 34.9713 -5.03 6.12
    endloop
  endfacet
  facet normal 0 0 1
    outer loop
      vertex 34.9713 5.03 6.12
      vertex 29.3793 1.64185 6.12
      vertex 30.17 0 6.12
    endloop
  endfacet
  facet normal 0 0 1
    outer loop
      vertex 34.9713 5.03 6.12
      vertex 27.6027 2.04735 6.12
      vertex 29.3793 1.64185 6.12
    endloop
  endfacet
  facet normal 0 0 1
    outer loop
      vertex 26.178 0.911156 6.12
      vertex 23.3 5.03 6.12
      vertex 26.178 -0.911156 6.12
    endloop
  endfacet
  facet normal 0 0 1
    outer loop
      vertex 27.6027 2.04735 6.12
      vertex 23.3 5.03 6.12
      vertex 26.178 0.911156 6.12
    endloop
  endfacet
  facet normal -0 0 1
    outer loop
      vertex 23.3 5.03 6.12
      vertex 27.6027 2.04735 6.12
      vertex 34.9713 5.03 6.12
    endloop
  endfacet
  facet normal 0 0 1
    outer loop
      vertex 36.801 1.89371 6.12
      vertex 39 0 6.12
      vertex 38.247 1.56366 6.12
    endloop
  endfacet
  facet normal 0 0 1
    outer loop
      vertex 36.801 -1.89371 6.12
      vertex 39 0 6.12
      vertex 36.801 1.89371 6.12
    endloop
  endfacet
  facet normal 0 0 1
    outer loop
      vertex 39 0 6.12
      vertex 36.801 -1.89371 6.12
      vertex 38.247 -1.56366 6.12
    endloop
  endfacet
  facet normal -0 0 1
    outer loop
      vertex 34.9713 5.03 6.12
      vertex 36.801 1.89371 6.12
      vertex 36.1915 7.69273 6.12
    endloop
  endfacet
  facet normal 0 0 1
    outer loop
      vertex 30.17 0 6.12
      vertex 36.801 1.89371 6.12
      vertex 34.9713 5.03 6.12
    endloop
  endfacet
  facet normal 0 0 1
    outer loop
      vertex 36.801 1.89371 6.12
      vertex 30.17 0 6.12
      vertex 36.801 -1.89371 6.12
    endloop
  endfacet
  facet normal 0 0 1
    outer loop
      vertex 36.1915 7.69273 6.12
      vertex 34.7242 7.38086 6.12
      vertex 34.9713 5.03 6.12
    endloop
  endfacet
  facet normal 0 0 1
    outer loop
      vertex 33.8012 15.0493 6.12
      vertex 34.7242 7.38086 6.12
      vertex 36.1915 7.69273 6.12
    endloop
  endfacet
  facet normal 0 0 1
    outer loop
      vertex 33.8012 15.0493 6.12
      vertex 32.4309 14.4392 6.12
      vertex 34.7242 7.38086 6.12
    endloop
  endfacet
  facet normal 0 0 1
    outer loop
      vertex 29.9336 21.7481 6.12
      vertex 32.4309 14.4392 6.12
      vertex 33.8012 15.0493 6.12
    endloop
  endfacet
  facet normal 0 0 1
    outer loop
      vertex 29.9336 21.7481 6.12
      vertex 28.7201 20.8664 6.12
      vertex 32.4309 14.4392 6.12
    endloop
  endfacet
  facet normal 0 0 1
    outer loop
      vertex 24.7578 27.4964 6.12
      vertex 28.7201 20.8664 6.12
      vertex 29.9336 21.7481 6.12
    endloop
  endfacet
  facet normal 0 0 1
    outer loop
      vertex 24.7578 27.4964 6.12
      vertex 23.7541 26.3816 6.12
      vertex 28.7201 20.8664 6.12
    endloop
  endfacet
  facet normal 0 0 1
    outer loop
      vertex 18.5 32.0429 6.12
      vertex 23.7541 26.3816 6.12
      vertex 24.7578 27.4964 6.12
    endloop
  endfacet
  facet normal 0 0 1
    outer loop
      vertex 18.5 32.0429 6.12
      vertex 17.75 30.7439 6.12
      vertex 23.7541 26.3816 6.12
    endloop
  endfacet
  facet normal 0 0 1
    outer loop
      vertex 11.4336 35.1891 6.12
      vertex 17.75 30.7439 6.12
      vertex 18.5 32.0429 6.12
    endloop
  endfacet
  facet normal 0 0 1
    outer loop
      vertex 11.4336 35.1891 6.12
      vertex 10.9701 33.7625 6.12
      vertex 17.75 30.7439 6.12
    endloop
  endfacet
  facet normal 0 0 1
    outer loop
      vertex 3.86755 36.7973 6.12
      vertex 10.9701 33.7625 6.12
      vertex 11.4336 35.1891 6.12
    endloop
  endfacet
  facet normal 0 0 1
    outer loop
      vertex 3.86755 36.7973 6.12
      vertex 3.71076 35.3055 6.12
      vertex 10.9701 33.7625 6.12
    endloop
  endfacet
  facet normal 0 0 1
    outer loop
      vertex 3.86755 36.7973 6.12
      vertex -3.71076 35.3055 6.12
      vertex 3.71076 35.3055 6.12
    endloop
  endfacet
  facet normal -0 0 1
    outer loop
      vertex -3.86755 36.7973 6.12
      vertex -3.71076 35.3055 6.12
      vertex 3.86755 36.7973 6.12
    endloop
  endfacet
  facet normal 0 0 1
    outer loop
      vertex -3.86755 36.7973 6.12
      vertex -10.9701 33.7625 6.12
      vertex -3.71076 35.3055 6.12
    endloop
  endfacet
  facet normal -0 0 1
    outer loop
      vertex -11.4336 35.1891 6.12
      vertex -10.9701 33.7625 6.12
      vertex -3.86755 36.7973 6.12
    endloop
  endfacet
  facet normal 0 0 1
    outer loop
      vertex -11.4336 35.1891 6.12
      vertex -17.75 30.7439 6.12
      vertex -10.9701 33.7625 6.12
    endloop
  endfacet
  facet normal -0 0 1
    outer loop
      vertex -18.5 32.0429 6.12
      vertex -17.75 30.7439 6.12
      vertex -11.4336 35.1891 6.12
    endloop
  endfacet
  facet normal 0 0 1
    outer loop
      vertex -18.5 32.0429 6.12
      vertex -23.7541 26.3816 6.12
      vertex -17.75 30.7439 6.12
    endloop
  endfacet
  facet normal -0 0 1
    outer loop
      vertex -24.7578 27.4964 6.12
      vertex -23.7541 26.3816 6.12
      vertex -18.5 32.0429 6.12
    endloop
  endfacet
  facet normal 0 0 1
    outer loop
      vertex -24.7578 27.4964 6.12
      vertex -28.7201 20.8664 6.12
      vertex -23.7541 26.3816 6.12
    endloop
  endfacet
  facet normal -0 0 1
    outer loop
      vertex -29.9336 21.7481 6.12
      vertex -28.7201 20.8664 6.12
      vertex -24.7578 27.4964 6.12
    endloop
  endfacet
  facet normal 0 0 1
    outer loop
      vertex -29.9336 21.7481 6.12
      vertex -32.4309 14.4392 6.12
      vertex -28.7201 20.8664 6.12
    endloop
  endfacet
  facet normal -0 0 1
    outer loop
      vertex -33.8012 15.0493 6.12
      vertex -32.4309 14.4392 6.12
      vertex -29.9336 21.7481 6.12
    endloop
  endfacet
  facet normal 0 0 1
    outer loop
      vertex -33.8012 15.0493 6.12
      vertex -34.7242 7.38086 6.12
      vertex -32.4309 14.4392 6.12
    endloop
  endfacet
  facet normal 0 0 1
    outer loop
      vertex -34.7242 7.38086 6.12
      vertex -36.1915 7.69273 6.12
      vertex -35.5 0 6.12
    endloop
  endfacet
  facet normal -0 0 1
    outer loop
      vertex -36.1915 7.69273 6.12
      vertex -34.7242 7.38086 6.12
      vertex -33.8012 15.0493 6.12
    endloop
  endfacet
  facet normal 0 0 1
    outer loop
      vertex 36.801 -1.89371 6.12
      vertex 34.9713 -5.03 6.12
      vertex 36.1915 -7.69273 6.12
    endloop
  endfacet
  facet normal -0 0 1
    outer loop
      vertex 34.7242 -7.38086 6.12
      vertex 36.1915 -7.69273 6.12
      vertex 34.9713 -5.03 6.12
    endloop
  endfacet
  facet normal 0 0 1
    outer loop
      vertex 34.7242 -7.38086 6.12
      vertex 33.8012 -15.0493 6.12
      vertex 36.1915 -7.69273 6.12
    endloop
  endfacet
  facet normal -0 0 1
    outer loop
      vertex 32.4309 -14.4392 6.12
      vertex 33.8012 -15.0493 6.12
      vertex 34.7242 -7.38086 6.12
    endloop
  endfacet
  facet normal 0 0 1
    outer loop
      vertex 32.4309 -14.4392 6.12
      vertex 29.9336 -21.7481 6.12
      vertex 33.8012 -15.0493 6.12
    endloop
  endfacet
  facet normal -0 0 1
    outer loop
      vertex 28.7201 -20.8664 6.12
      vertex 29.9336 -21.7481 6.12
      vertex 32.4309 -14.4392 6.12
    endloop
  endfacet
  facet normal 0 0 1
    outer loop
      vertex 28.7201 -20.8664 6.12
      vertex 24.7578 -27.4964 6.12
      vertex 29.9336 -21.7481 6.12
    endloop
  endfacet
  facet normal -0 0 1
    outer loop
      vertex 23.7541 -26.3816 6.12
      vertex 24.7578 -27.4964 6.12
      vertex 28.7201 -20.8664 6.12
    endloop
  endfacet
  facet normal 0 0 1
    outer loop
      vertex 23.7541 -26.3816 6.12
      vertex 18.5 -32.0429 6.12
      vertex 24.7578 -27.4964 6.12
    endloop
  endfacet
  facet normal -0 0 1
    outer loop
      vertex 17.75 -30.7439 6.12
      vertex 18.5 -32.0429 6.12
      vertex 23.7541 -26.3816 6.12
    endloop
  endfacet
  facet normal 0 0 1
    outer loop
      vertex 17.75 -30.7439 6.12
      vertex 11.4336 -35.1891 6.12
      vertex 18.5 -32.0429 6.12
    endloop
  endfacet
  facet normal -0 0 1
    outer loop
      vertex 10.9701 -33.7625 6.12
      vertex 11.4336 -35.1891 6.12
      vertex 17.75 -30.7439 6.12
    endloop
  endfacet
  facet normal 0 0 1
    outer loop
      vertex 10.9701 -33.7625 6.12
      vertex 3.86755 -36.7973 6.12
      vertex 11.4336 -35.1891 6.12
    endloop
  endfacet
  facet normal -0 0 1
    outer loop
      vertex 3.71076 -35.3055 6.12
      vertex 3.86755 -36.7973 6.12
      vertex 10.9701 -33.7625 6.12
    endloop
  endfacet
  facet normal -0 0 1
    outer loop
      vertex -3.71076 -35.3055 6.12
      vertex 3.86755 -36.7973 6.12
      vertex 3.71076 -35.3055 6.12
    endloop
  endfacet
  facet normal 0 0 1
    outer loop
      vertex -3.71076 -35.3055 6.12
      vertex -3.86755 -36.7973 6.12
      vertex 3.86755 -36.7973 6.12
    endloop
  endfacet
  facet normal 0 0 1
    outer loop
      vertex -10.9701 -33.7625 6.12
      vertex -3.86755 -36.7973 6.12
      vertex -3.71076 -35.3055 6.12
    endloop
  endfacet
  facet normal 0 0 1
    outer loop
      vertex -10.9701 -33.7625 6.12
      vertex -11.4336 -35.1891 6.12
      vertex -3.86755 -36.7973 6.12
    endloop
  endfacet
  facet normal 0 0 1
    outer loop
      vertex -17.75 -30.7439 6.12
      vertex -11.4336 -35.1891 6.12
      vertex -10.9701 -33.7625 6.12
    endloop
  endfacet
  facet normal 0 0 1
    outer loop
      vertex -17.75 -30.7439 6.12
      vertex -18.5 -32.0429 6.12
      vertex -11.4336 -35.1891 6.12
    endloop
  endfacet
  facet normal 0 0 1
    outer loop
      vertex -23.7541 -26.3816 6.12
      vertex -18.5 -32.0429 6.12
      vertex -17.75 -30.7439 6.12
    endloop
  endfacet
  facet normal 0 0 1
    outer loop
      vertex -23.7541 -26.3816 6.12
      vertex -24.7578 -27.4964 6.12
      vertex -18.5 -32.0429 6.12
    endloop
  endfacet
  facet normal 0 0 1
    outer loop
      vertex -28.7201 -20.8664 6.12
      vertex -24.7578 -27.4964 6.12
      vertex -23.7541 -26.3816 6.12
    endloop
  endfacet
  facet normal 0 0 1
    outer loop
      vertex -28.7201 -20.8664 6.12
      vertex -29.9336 -21.7481 6.12
      vertex -24.7578 -27.4964 6.12
    endloop
  endfacet
  facet normal 0 0 1
    outer loop
      vertex -32.4309 -14.4392 6.12
      vertex -29.9336 -21.7481 6.12
      vertex -28.7201 -20.8664 6.12
    endloop
  endfacet
  facet normal 0 0 1
    outer loop
      vertex -32.4309 -14.4392 6.12
      vertex -33.8012 -15.0493 6.12
      vertex -29.9336 -21.7481 6.12
    endloop
  endfacet
  facet normal 0 0 1
    outer loop
      vertex -34.7242 -7.38086 6.12
      vertex -33.8012 -15.0493 6.12
      vertex -32.4309 -14.4392 6.12
    endloop
  endfacet
  facet normal 0 0 1
    outer loop
      vertex -34.7242 -7.38086 6.12
      vertex -36.1915 -7.69273 6.12
      vertex -33.8012 -15.0493 6.12
    endloop
  endfacet
  facet normal 0 0 1
    outer loop
      vertex -35.5 0 6.12
      vertex -36.1915 -7.69273 6.12
      vertex -34.7242 -7.38086 6.12
    endloop
  endfacet
  facet normal 0 0 1
    outer loop
      vertex -37 0 6.12
      vertex -35.5 0 6.12
      vertex -36.1915 7.69273 6.12
    endloop
  endfacet
  facet normal 0 0 1
    outer loop
      vertex -35.5 0 6.12
      vertex -37 0 6.12
      vertex -36.1915 -7.69273 6.12
    endloop
  endfacet
  facet normal -0 0 1
    outer loop
      vertex 29.3793 -1.64185 6.12
      vertex 34.9713 -5.03 6.12
      vertex 30.17 0 6.12
    endloop
  endfacet
  facet normal -0 0 1
    outer loop
      vertex 27.6027 -2.04735 6.12
      vertex 34.9713 -5.03 6.12
      vertex 29.3793 -1.64185 6.12
    endloop
  endfacet
  facet normal 0 0 1
    outer loop
      vertex 27.6027 -2.04735 6.12
      vertex 23.3 -5.03 6.12
      vertex 34.9713 -5.03 6.12
    endloop
  endfacet
  facet normal 0 0 1
    outer loop
      vertex 26.178 -0.911156 6.12
      vertex 23.3 -5.03 6.12
      vertex 27.6027 -2.04735 6.12
    endloop
  endfacet
  facet normal 0 0 1
    outer loop
      vertex 23.3 -5.03 6.12
      vertex 26.178 -0.911156 6.12
      vertex 23.3 5.03 6.12
    endloop
  endfacet
  facet normal -0.406737 0.913545 0
    outer loop
      vertex -11.4336 35.1891 0
      vertex -18.5 32.0429 6.12
      vertex -11.4336 35.1891 6.12
    endloop
  endfacet
  facet normal -0.406737 0.913545 0
    outer loop
      vertex -18.5 32.0429 6.12
      vertex -11.4336 35.1891 0
      vertex -18.5 32.0429 0
    endloop
  endfacet
  facet normal 0.994522 -0.104529 0
    outer loop
      vertex 36.1915 -7.69273 6.12
      vertex 36.801 -1.89371 0
      vertex 36.801 -1.89371 6.12
    endloop
  endfacet
  facet normal 0.994522 -0.104529 0
    outer loop
      vertex 36.801 -1.89371 0
      vertex 36.1915 -7.69273 6.12
      vertex 36.1915 -7.69273 0
    endloop
  endfacet
  facet normal -0.207912 -0.978148 0
    outer loop
      vertex -11.4336 -35.1891 0
      vertex -3.86755 -36.7973 6.12
      vertex -11.4336 -35.1891 6.12
    endloop
  endfacet
  facet normal -0.207912 -0.978148 -0
    outer loop
      vertex -3.86755 -36.7973 6.12
      vertex -11.4336 -35.1891 0
      vertex -3.86755 -36.7973 0
    endloop
  endfacet
  facet normal 0.207912 -0.978148 0
    outer loop
      vertex 3.86755 -36.7973 0
      vertex 11.4336 -35.1891 6.12
      vertex 3.86755 -36.7973 6.12
    endloop
  endfacet
  facet normal 0.207912 -0.978148 0
    outer loop
      vertex 11.4336 -35.1891 6.12
      vertex 3.86755 -36.7973 0
      vertex 11.4336 -35.1891 0
    endloop
  endfacet
  facet normal 0.743145 -0.669131 0
    outer loop
      vertex 24.7578 -27.4964 6.12
      vertex 29.9336 -21.7481 0
      vertex 29.9336 -21.7481 6.12
    endloop
  endfacet
  facet normal 0.743145 -0.669131 0
    outer loop
      vertex 29.9336 -21.7481 0
      vertex 24.7578 -27.4964 6.12
      vertex 24.7578 -27.4964 0
    endloop
  endfacet
  facet normal 0.951057 -0.309017 0
    outer loop
      vertex 33.8012 -15.0493 6.12
      vertex 36.1915 -7.69273 0
      vertex 36.1915 -7.69273 6.12
    endloop
  endfacet
  facet normal 0.951057 -0.309017 0
    outer loop
      vertex 36.1915 -7.69273 0
      vertex 33.8012 -15.0493 6.12
      vertex 33.8012 -15.0493 0
    endloop
  endfacet
  facet normal 0.866025 -0.5 0
    outer loop
      vertex 29.9336 -21.7481 6.12
      vertex 33.8012 -15.0493 0
      vertex 33.8012 -15.0493 6.12
    endloop
  endfacet
  facet normal 0.866025 -0.5 0
    outer loop
      vertex 33.8012 -15.0493 0
      vertex 29.9336 -21.7481 6.12
      vertex 29.9336 -21.7481 0
    endloop
  endfacet
  facet normal -0.866025 -0.5 0
    outer loop
      vertex -29.9336 -21.7481 0
      vertex -33.8012 -15.0493 6.12
      vertex -33.8012 -15.0493 0
    endloop
  endfacet
  facet normal -0.866025 -0.5 0
    outer loop
      vertex -33.8012 -15.0493 6.12
      vertex -29.9336 -21.7481 0
      vertex -29.9336 -21.7481 6.12
    endloop
  endfacet
  facet normal -0.994522 -0.104529 0
    outer loop
      vertex -36.1915 -7.69273 0
      vertex -37 0 6.12
      vertex -37 0 0
    endloop
  endfacet
  facet normal -0.994522 -0.104529 0
    outer loop
      vertex -37 0 6.12
      vertex -36.1915 -7.69273 0
      vertex -36.1915 -7.69273 6.12
    endloop
  endfacet
  facet normal -0.951057 -0.309017 0
    outer loop
      vertex -33.8012 -15.0493 0
      vertex -36.1915 -7.69273 6.12
      vertex -36.1915 -7.69273 0
    endloop
  endfacet
  facet normal -0.951057 -0.309017 0
    outer loop
      vertex -36.1915 -7.69273 6.12
      vertex -33.8012 -15.0493 0
      vertex -33.8012 -15.0493 6.12
    endloop
  endfacet
  facet normal 0.587785 -0.809017 0
    outer loop
      vertex 18.5 -32.0429 0
      vertex 24.7578 -27.4964 6.12
      vertex 18.5 -32.0429 6.12
    endloop
  endfacet
  facet normal 0.587785 -0.809017 0
    outer loop
      vertex 24.7578 -27.4964 6.12
      vertex 18.5 -32.0429 0
      vertex 24.7578 -27.4964 0
    endloop
  endfacet
  facet normal 0.406737 -0.913545 0
    outer loop
      vertex 11.4336 -35.1891 0
      vertex 18.5 -32.0429 6.12
      vertex 11.4336 -35.1891 6.12
    endloop
  endfacet
  facet normal 0.406737 -0.913545 0
    outer loop
      vertex 18.5 -32.0429 6.12
      vertex 11.4336 -35.1891 0
      vertex 18.5 -32.0429 0
    endloop
  endfacet
  facet normal 0 -1 0
    outer loop
      vertex -3.86755 -36.7973 0
      vertex 3.86755 -36.7973 6.12
      vertex -3.86755 -36.7973 6.12
    endloop
  endfacet
  facet normal 0 -1 -0
    outer loop
      vertex 3.86755 -36.7973 6.12
      vertex -3.86755 -36.7973 0
      vertex 3.86755 -36.7973 0
    endloop
  endfacet
  facet normal -0.587785 -0.809017 0
    outer loop
      vertex -24.7578 -27.4964 0
      vertex -18.5 -32.0429 6.12
      vertex -24.7578 -27.4964 6.12
    endloop
  endfacet
  facet normal -0.587785 -0.809017 -0
    outer loop
      vertex -18.5 -32.0429 6.12
      vertex -24.7578 -27.4964 0
      vertex -18.5 -32.0429 0
    endloop
  endfacet
  facet normal -0.406737 -0.913545 0
    outer loop
      vertex -18.5 -32.0429 0
      vertex -11.4336 -35.1891 6.12
      vertex -18.5 -32.0429 6.12
    endloop
  endfacet
  facet normal -0.406737 -0.913545 -0
    outer loop
      vertex -11.4336 -35.1891 6.12
      vertex -18.5 -32.0429 0
      vertex -11.4336 -35.1891 0
    endloop
  endfacet
  facet normal -0.743145 -0.669131 0
    outer loop
      vertex -24.7578 -27.4964 0
      vertex -29.9336 -21.7481 6.12
      vertex -29.9336 -21.7481 0
    endloop
  endfacet
  facet normal -0.743145 -0.669131 0
    outer loop
      vertex -29.9336 -21.7481 6.12
      vertex -24.7578 -27.4964 0
      vertex -24.7578 -27.4964 6.12
    endloop
  endfacet
  facet normal 0 0 -1
    outer loop
      vertex 36.801 -1.89371 0
      vertex 39 0 0
      vertex 38.247 -1.56366 0
    endloop
  endfacet
  facet normal 0 0 -1
    outer loop
      vertex 36.801 1.89371 0
      vertex 39 0 0
      vertex 36.801 -1.89371 0
    endloop
  endfacet
  facet normal 0 0 -1
    outer loop
      vertex 39 0 0
      vertex 36.801 1.89371 0
      vertex 38.247 1.56366 0
    endloop
  endfacet
  facet normal 0 0 -1
    outer loop
      vertex 31.3839 -6.67085 0
      vertex 36.801 -1.89371 0
      vertex 36.1915 -7.69273 0
    endloop
  endfacet
  facet normal 0 0 -1
    outer loop
      vertex 36.801 -1.89371 0
      vertex 32.085 0 0
      vertex 36.801 1.89371 0
    endloop
  endfacet
  facet normal 0 0 -1
    outer loop
      vertex 31.3839 -6.67085 0
      vertex 36.1915 -7.69273 0
      vertex 33.8012 -15.0493 0
    endloop
  endfacet
  facet normal 0 0 -1
    outer loop
      vertex 31.3839 6.67085 0
      vertex 36.801 1.89371 0
      vertex 32.085 0 0
    endloop
  endfacet
  facet normal 0 0 -1
    outer loop
      vertex 36.801 1.89371 0
      vertex 31.3839 6.67085 0
      vertex 36.1915 7.69273 0
    endloop
  endfacet
  facet normal -0 0 -1
    outer loop
      vertex 36.801 -1.89371 0
      vertex 31.3839 -6.67085 0
      vertex 32.085 0 0
    endloop
  endfacet
  facet normal 0 0 -1
    outer loop
      vertex 29.3111 -13.0501 0
      vertex 33.8012 -15.0493 0
      vertex 29.9336 -21.7481 0
    endloop
  endfacet
  facet normal 0 0 -1
    outer loop
      vertex 33.8012 -15.0493 0
      vertex 29.3111 -13.0501 0
      vertex 31.3839 -6.67085 0
    endloop
  endfacet
  facet normal 0 0 -1
    outer loop
      vertex 29.9336 -21.7481 0
      vertex 25.9573 -18.8591 0
      vertex 29.3111 -13.0501 0
    endloop
  endfacet
  facet normal 0 0 -1
    outer loop
      vertex 24.7578 -27.4964 0
      vertex 25.9573 -18.8591 0
      vertex 29.9336 -21.7481 0
    endloop
  endfacet
  facet normal 0 0 -1
    outer loop
      vertex 24.7578 -27.4964 0
      vertex 21.4691 -23.8438 0
      vertex 25.9573 -18.8591 0
    endloop
  endfacet
  facet normal 0 0 -1
    outer loop
      vertex 18.5 -32.0429 0
      vertex 21.4691 -23.8438 0
      vertex 24.7578 -27.4964 0
    endloop
  endfacet
  facet normal 0 0 -1
    outer loop
      vertex 18.5 -32.0429 0
      vertex 16.0425 -27.7864 0
      vertex 21.4691 -23.8438 0
    endloop
  endfacet
  facet normal 0 0 -1
    outer loop
      vertex 11.4336 -35.1891 0
      vertex 16.0425 -27.7864 0
      vertex 18.5 -32.0429 0
    endloop
  endfacet
  facet normal 0 0 -1
    outer loop
      vertex 11.4336 -35.1891 0
      vertex 9.91481 -30.5146 0
      vertex 16.0425 -27.7864 0
    endloop
  endfacet
  facet normal 0 0 -1
    outer loop
      vertex 3.86755 -36.7973 0
      vertex 9.91481 -30.5146 0
      vertex 11.4336 -35.1891 0
    endloop
  endfacet
  facet normal 0 0 -1
    outer loop
      vertex 3.86755 -36.7973 0
      vertex 3.3538 -31.9092 0
      vertex 9.91481 -30.5146 0
    endloop
  endfacet
  facet normal 0 0 -1
    outer loop
      vertex 3.86755 -36.7973 0
      vertex -3.3538 -31.9092 0
      vertex 3.3538 -31.9092 0
    endloop
  endfacet
  facet normal 0 0 -1
    outer loop
      vertex -3.86755 -36.7973 0
      vertex -3.3538 -31.9092 0
      vertex 3.86755 -36.7973 0
    endloop
  endfacet
  facet normal 0 0 -1
    outer loop
      vertex -3.86755 -36.7973 0
      vertex -9.91481 -30.5146 0
      vertex -3.3538 -31.9092 0
    endloop
  endfacet
  facet normal 0 0 -1
    outer loop
      vertex -11.4336 -35.1891 0
      vertex -9.91481 -30.5146 0
      vertex -3.86755 -36.7973 0
    endloop
  endfacet
  facet normal 0 0 -1
    outer loop
      vertex -11.4336 -35.1891 0
      vertex -16.0425 -27.7864 0
      vertex -9.91481 -30.5146 0
    endloop
  endfacet
  facet normal 0 0 -1
    outer loop
      vertex -18.5 -32.0429 0
      vertex -16.0425 -27.7864 0
      vertex -11.4336 -35.1891 0
    endloop
  endfacet
  facet normal 0 0 -1
    outer loop
      vertex -18.5 -32.0429 0
      vertex -21.4691 -23.8438 0
      vertex -16.0425 -27.7864 0
    endloop
  endfacet
  facet normal 0 0 -1
    outer loop
      vertex -24.7578 -27.4964 0
      vertex -21.4691 -23.8438 0
      vertex -18.5 -32.0429 0
    endloop
  endfacet
  facet normal 0 0 -1
    outer loop
      vertex -24.7578 -27.4964 0
      vertex -25.9573 -18.8591 0
      vertex -21.4691 -23.8438 0
    endloop
  endfacet
  facet normal 0 0 -1
    outer loop
      vertex -29.9336 -21.7481 0
      vertex -25.9573 -18.8591 0
      vertex -24.7578 -27.4964 0
    endloop
  endfacet
  facet normal -0 0 -1
    outer loop
      vertex -25.9573 -18.8591 0
      vertex -29.9336 -21.7481 0
      vertex -29.3111 -13.0501 0
    endloop
  endfacet
  facet normal 0 0 -1
    outer loop
      vertex -33.8012 -15.0493 0
      vertex -29.3111 -13.0501 0
      vertex -29.9336 -21.7481 0
    endloop
  endfacet
  facet normal -0 0 -1
    outer loop
      vertex -29.3111 -13.0501 0
      vertex -33.8012 -15.0493 0
      vertex -31.3839 -6.67085 0
    endloop
  endfacet
  facet normal 0 0 -1
    outer loop
      vertex -36.1915 -7.69273 0
      vertex -31.3839 -6.67085 0
      vertex -33.8012 -15.0493 0
    endloop
  endfacet
  facet normal -0 0 -1
    outer loop
      vertex 36.1915 7.69273 0
      vertex 31.3839 6.67085 0
      vertex 33.8012 15.0493 0
    endloop
  endfacet
  facet normal 0 0 -1
    outer loop
      vertex 29.3111 13.0501 0
      vertex 33.8012 15.0493 0
      vertex 31.3839 6.67085 0
    endloop
  endfacet
  facet normal -0 0 -1
    outer loop
      vertex 33.8012 15.0493 0
      vertex 29.3111 13.0501 0
      vertex 29.9336 21.7481 0
    endloop
  endfacet
  facet normal 0 0 -1
    outer loop
      vertex 25.9573 18.8591 0
      vertex 29.9336 21.7481 0
      vertex 29.3111 13.0501 0
    endloop
  endfacet
  facet normal 0 0 -1
    outer loop
      vertex 25.9573 18.8591 0
      vertex 24.7578 27.4964 0
      vertex 29.9336 21.7481 0
    endloop
  endfacet
  facet normal 0 0 -1
    outer loop
      vertex 21.4691 23.8438 0
      vertex 24.7578 27.4964 0
      vertex 25.9573 18.8591 0
    endloop
  endfacet
  facet normal 0 0 -1
    outer loop
      vertex 21.4691 23.8438 0
      vertex 18.5 32.0429 0
      vertex 24.7578 27.4964 0
    endloop
  endfacet
  facet normal 0 0 -1
    outer loop
      vertex 16.0425 27.7864 0
      vertex 18.5 32.0429 0
      vertex 21.4691 23.8438 0
    endloop
  endfacet
  facet normal 0 0 -1
    outer loop
      vertex 16.0425 27.7864 0
      vertex 11.4336 35.1891 0
      vertex 18.5 32.0429 0
    endloop
  endfacet
  facet normal 0 0 -1
    outer loop
      vertex 9.91481 30.5146 0
      vertex 11.4336 35.1891 0
      vertex 16.0425 27.7864 0
    endloop
  endfacet
  facet normal 0 0 -1
    outer loop
      vertex 9.91481 30.5146 0
      vertex 3.86755 36.7973 0
      vertex 11.4336 35.1891 0
    endloop
  endfacet
  facet normal 0 0 -1
    outer loop
      vertex 3.3538 31.9092 0
      vertex 3.86755 36.7973 0
      vertex 9.91481 30.5146 0
    endloop
  endfacet
  facet normal 0 0 -1
    outer loop
      vertex -3.3538 31.9092 0
      vertex 3.86755 36.7973 0
      vertex 3.3538 31.9092 0
    endloop
  endfacet
  facet normal 0 0 -1
    outer loop
      vertex -3.3538 31.9092 0
      vertex -3.86755 36.7973 0
      vertex 3.86755 36.7973 0
    endloop
  endfacet
  facet normal 0 0 -1
    outer loop
      vertex -9.91481 30.5146 0
      vertex -3.86755 36.7973 0
      vertex -3.3538 31.9092 0
    endloop
  endfacet
  facet normal 0 0 -1
    outer loop
      vertex -9.91481 30.5146 0
      vertex -11.4336 35.1891 0
      vertex -3.86755 36.7973 0
    endloop
  endfacet
  facet normal 0 0 -1
    outer loop
      vertex -16.0425 27.7864 0
      vertex -11.4336 35.1891 0
      vertex -9.91481 30.5146 0
    endloop
  endfacet
  facet normal 0 0 -1
    outer loop
      vertex -16.0425 27.7864 0
      vertex -18.5 32.0429 0
      vertex -11.4336 35.1891 0
    endloop
  endfacet
  facet normal 0 0 -1
    outer loop
      vertex -21.4691 23.8438 0
      vertex -18.5 32.0429 0
      vertex -16.0425 27.7864 0
    endloop
  endfacet
  facet normal 0 0 -1
    outer loop
      vertex -21.4691 23.8438 0
      vertex -24.7578 27.4964 0
      vertex -18.5 32.0429 0
    endloop
  endfacet
  facet normal 0 0 -1
    outer loop
      vertex -25.9573 18.8591 0
      vertex -24.7578 27.4964 0
      vertex -21.4691 23.8438 0
    endloop
  endfacet
  facet normal 0 0 -1
    outer loop
      vertex -29.9336 21.7481 0
      vertex -25.9573 18.8591 0
      vertex -29.3111 13.0501 0
    endloop
  endfacet
  facet normal 0 0 -1
    outer loop
      vertex -25.9573 18.8591 0
      vertex -29.9336 21.7481 0
      vertex -24.7578 27.4964 0
    endloop
  endfacet
  facet normal 0 0 -1
    outer loop
      vertex -33.8012 15.0493 0
      vertex -29.3111 13.0501 0
      vertex -31.3839 6.67085 0
    endloop
  endfacet
  facet normal 0 0 -1
    outer loop
      vertex -36.1915 7.69273 0
      vertex -31.3839 6.67085 0
      vertex -32.085 0 0
    endloop
  endfacet
  facet normal -0 0 -1
    outer loop
      vertex -31.3839 -6.67085 0
      vertex -36.1915 -7.69273 0
      vertex -32.085 0 0
    endloop
  endfacet
  facet normal 0 0 -1
    outer loop
      vertex -29.3111 13.0501 0
      vertex -33.8012 15.0493 0
      vertex -29.9336 21.7481 0
    endloop
  endfacet
  facet normal 0 0 -1
    outer loop
      vertex -37 0 0
      vertex -32.085 0 0
      vertex -36.1915 -7.69273 0
    endloop
  endfacet
  facet normal 0 0 -1
    outer loop
      vertex -31.3839 6.67085 0
      vertex -36.1915 7.69273 0
      vertex -33.8012 15.0493 0
    endloop
  endfacet
  facet normal 0 0 -1
    outer loop
      vertex -32.085 0 0
      vertex -37 0 0
      vertex -36.1915 7.69273 0
    endloop
  endfacet
  facet normal -0.866025 -0.5 0
    outer loop
      vertex 29.3111 13.0501 0
      vertex 25.9573 18.8591 2.57
      vertex 25.9573 18.8591 0
    endloop
  endfacet
  facet normal -0.866025 -0.5 0
    outer loop
      vertex 25.9573 18.8591 2.57
      vertex 29.3111 13.0501 0
      vertex 29.3111 13.0501 2.57
    endloop
  endfacet
  facet normal -0.951057 -0.309017 0
    outer loop
      vertex 31.3839 6.67085 0
      vertex 29.3111 13.0501 2.57
      vertex 29.3111 13.0501 0
    endloop
  endfacet
  facet normal -0.951057 -0.309017 0
    outer loop
      vertex 29.3111 13.0501 2.57
      vertex 31.3839 6.67085 0
      vertex 31.3839 6.67085 2.57
    endloop
  endfacet
  facet normal -0.406737 -0.913545 0
    outer loop
      vertex 9.91481 30.5146 0
      vertex 16.0425 27.7864 2.57
      vertex 9.91481 30.5146 2.57
    endloop
  endfacet
  facet normal -0.406737 -0.913545 -0
    outer loop
      vertex 16.0425 27.7864 2.57
      vertex 9.91481 30.5146 0
      vertex 16.0425 27.7864 0
    endloop
  endfacet
  facet normal 0.406737 -0.913545 0
    outer loop
      vertex -16.0425 27.7864 0
      vertex -9.91481 30.5146 2.57
      vertex -16.0425 27.7864 2.57
    endloop
  endfacet
  facet normal 0.406737 -0.913545 0
    outer loop
      vertex -9.91481 30.5146 2.57
      vertex -16.0425 27.7864 0
      vertex -9.91481 30.5146 0
    endloop
  endfacet
  facet normal 0.866025 -0.5 0
    outer loop
      vertex -29.3111 13.0501 2.57
      vertex -25.9573 18.8591 0
      vertex -25.9573 18.8591 2.57
    endloop
  endfacet
  facet normal 0.866025 -0.5 0
    outer loop
      vertex -25.9573 18.8591 0
      vertex -29.3111 13.0501 2.57
      vertex -29.3111 13.0501 0
    endloop
  endfacet
  facet normal 0.587785 -0.809017 0
    outer loop
      vertex -21.4691 23.8438 0
      vertex -16.0425 27.7864 2.57
      vertex -21.4691 23.8438 2.57
    endloop
  endfacet
  facet normal 0.587785 -0.809017 0
    outer loop
      vertex -16.0425 27.7864 2.57
      vertex -21.4691 23.8438 0
      vertex -16.0425 27.7864 0
    endloop
  endfacet
  facet normal -0.994522 0.104528 0
    outer loop
      vertex 32.085 0 0
      vertex 31.5563 -5.03 2.57
      vertex 32.085 0 2.57
    endloop
  endfacet
  facet normal -0.994522 0.104528 2.99199e-007
    outer loop
      vertex 31.3839 -6.67085 0
      vertex 31.5563 -5.03 2.57
      vertex 32.085 0 0
    endloop
  endfacet
  facet normal -0.994522 0.104529 0
    outer loop
      vertex 31.5563 -5.03 2.57
      vertex 31.3839 -6.67085 0
      vertex 31.3839 -6.67085 2.57
    endloop
  endfacet
  facet normal -0.207912 0.978148 0
    outer loop
      vertex 9.91481 -30.5146 0
      vertex 3.3538 -31.9092 2.57
      vertex 9.91481 -30.5146 2.57
    endloop
  endfacet
  facet normal -0.207912 0.978148 0
    outer loop
      vertex 3.3538 -31.9092 2.57
      vertex 9.91481 -30.5146 0
      vertex 3.3538 -31.9092 0
    endloop
  endfacet
  facet normal -0.743145 -0.669131 0
    outer loop
      vertex 25.9573 18.8591 0
      vertex 21.4691 23.8438 2.57
      vertex 21.4691 23.8438 0
    endloop
  endfacet
  facet normal -0.743145 -0.669131 0
    outer loop
      vertex 21.4691 23.8438 2.57
      vertex 25.9573 18.8591 0
      vertex 25.9573 18.8591 2.57
    endloop
  endfacet
  facet normal 0 -1 0
    outer loop
      vertex -3.3538 31.9092 0
      vertex 3.3538 31.9092 2.57
      vertex -3.3538 31.9092 2.57
    endloop
  endfacet
  facet normal 0 -1 -0
    outer loop
      vertex 3.3538 31.9092 2.57
      vertex -3.3538 31.9092 0
      vertex 3.3538 31.9092 0
    endloop
  endfacet
  facet normal -0.587785 -0.809017 0
    outer loop
      vertex 16.0425 27.7864 0
      vertex 21.4691 23.8438 2.57
      vertex 16.0425 27.7864 2.57
    endloop
  endfacet
  facet normal -0.587785 -0.809017 -0
    outer loop
      vertex 21.4691 23.8438 2.57
      vertex 16.0425 27.7864 0
      vertex 21.4691 23.8438 0
    endloop
  endfacet
  facet normal 0.994522 -0.104528 0
    outer loop
      vertex -32.085 0 2.57
      vertex -31.3839 6.67085 0
      vertex -31.3839 6.67085 2.57
    endloop
  endfacet
  facet normal 0.994522 -0.104528 0
    outer loop
      vertex -31.3839 6.67085 0
      vertex -32.085 0 2.57
      vertex -32.085 0 0
    endloop
  endfacet
  facet normal 0.743145 -0.669131 0
    outer loop
      vertex -25.9573 18.8591 2.57
      vertex -21.4691 23.8438 0
      vertex -21.4691 23.8438 2.57
    endloop
  endfacet
  facet normal 0.743145 -0.669131 0
    outer loop
      vertex -21.4691 23.8438 0
      vertex -25.9573 18.8591 2.57
      vertex -25.9573 18.8591 0
    endloop
  endfacet
  facet normal 0.207912 -0.978148 0
    outer loop
      vertex -9.91481 30.5146 0
      vertex -3.3538 31.9092 2.57
      vertex -9.91481 30.5146 2.57
    endloop
  endfacet
  facet normal 0.207912 -0.978148 0
    outer loop
      vertex -3.3538 31.9092 2.57
      vertex -9.91481 30.5146 0
      vertex -3.3538 31.9092 0
    endloop
  endfacet
  facet normal -0.994522 -0.104529 0
    outer loop
      vertex 31.3839 6.67085 0
      vertex 31.5563 5.03 2.57
      vertex 31.3839 6.67085 2.57
    endloop
  endfacet
  facet normal -0.994522 -0.104528 2.99199e-007
    outer loop
      vertex 32.085 0 0
      vertex 31.5563 5.03 2.57
      vertex 31.3839 6.67085 0
    endloop
  endfacet
  facet normal -0.994522 -0.104528 0
    outer loop
      vertex 31.5563 5.03 2.57
      vertex 32.085 0 0
      vertex 32.085 0 2.57
    endloop
  endfacet
  facet normal -0.587785 0.809017 0
    outer loop
      vertex 21.4691 -23.8438 0
      vertex 16.0425 -27.7864 2.57
      vertex 21.4691 -23.8438 2.57
    endloop
  endfacet
  facet normal -0.587785 0.809017 0
    outer loop
      vertex 16.0425 -27.7864 2.57
      vertex 21.4691 -23.8438 0
      vertex 16.0425 -27.7864 0
    endloop
  endfacet
  facet normal -0.951057 0.309017 0
    outer loop
      vertex 29.3111 -13.0501 0
      vertex 31.3839 -6.67085 2.57
      vertex 31.3839 -6.67085 0
    endloop
  endfacet
  facet normal -0.951057 0.309017 0
    outer loop
      vertex 31.3839 -6.67085 2.57
      vertex 29.3111 -13.0501 0
      vertex 29.3111 -13.0501 2.57
    endloop
  endfacet
  facet normal 0.587785 0.809017 -0
    outer loop
      vertex -16.0425 -27.7864 0
      vertex -21.4691 -23.8438 2.57
      vertex -16.0425 -27.7864 2.57
    endloop
  endfacet
  facet normal 0.587785 0.809017 0
    outer loop
      vertex -21.4691 -23.8438 2.57
      vertex -16.0425 -27.7864 0
      vertex -21.4691 -23.8438 0
    endloop
  endfacet
  facet normal 0.866025 0.5 0
    outer loop
      vertex -25.9573 -18.8591 2.57
      vertex -29.3111 -13.0501 0
      vertex -29.3111 -13.0501 2.57
    endloop
  endfacet
  facet normal 0.866025 0.5 0
    outer loop
      vertex -29.3111 -13.0501 0
      vertex -25.9573 -18.8591 2.57
      vertex -25.9573 -18.8591 0
    endloop
  endfacet
  facet normal -0.207912 -0.978148 0
    outer loop
      vertex 3.3538 31.9092 0
      vertex 9.91481 30.5146 2.57
      vertex 3.3538 31.9092 2.57
    endloop
  endfacet
  facet normal -0.207912 -0.978148 -0
    outer loop
      vertex 9.91481 30.5146 2.57
      vertex 3.3538 31.9092 0
      vertex 9.91481 30.5146 0
    endloop
  endfacet
  facet normal 0.951057 -0.309017 0
    outer loop
      vertex -31.3839 6.67085 2.57
      vertex -29.3111 13.0501 0
      vertex -29.3111 13.0501 2.57
    endloop
  endfacet
  facet normal 0.951057 -0.309017 0
    outer loop
      vertex -29.3111 13.0501 0
      vertex -31.3839 6.67085 2.57
      vertex -31.3839 6.67085 0
    endloop
  endfacet
  facet normal -0.866025 0.5 0
    outer loop
      vertex 25.9573 -18.8591 0
      vertex 29.3111 -13.0501 2.57
      vertex 29.3111 -13.0501 0
    endloop
  endfacet
  facet normal -0.866025 0.5 0
    outer loop
      vertex 29.3111 -13.0501 2.57
      vertex 25.9573 -18.8591 0
      vertex 25.9573 -18.8591 2.57
    endloop
  endfacet
  facet normal 0.994522 0.104528 0
    outer loop
      vertex -31.3839 -6.67085 2.57
      vertex -32.085 0 0
      vertex -32.085 0 2.57
    endloop
  endfacet
  facet normal 0.994522 0.104528 0
    outer loop
      vertex -32.085 0 0
      vertex -31.3839 -6.67085 2.57
      vertex -31.3839 -6.67085 0
    endloop
  endfacet
  facet normal 0.743145 0.669131 0
    outer loop
      vertex -21.4691 -23.8438 2.57
      vertex -25.9573 -18.8591 0
      vertex -25.9573 -18.8591 2.57
    endloop
  endfacet
  facet normal 0.743145 0.669131 0
    outer loop
      vertex -25.9573 -18.8591 0
      vertex -21.4691 -23.8438 2.57
      vertex -21.4691 -23.8438 0
    endloop
  endfacet
  facet normal -0.406737 0.913545 0
    outer loop
      vertex 16.0425 -27.7864 0
      vertex 9.91481 -30.5146 2.57
      vertex 16.0425 -27.7864 2.57
    endloop
  endfacet
  facet normal -0.406737 0.913545 0
    outer loop
      vertex 9.91481 -30.5146 2.57
      vertex 16.0425 -27.7864 0
      vertex 9.91481 -30.5146 0
    endloop
  endfacet
  facet normal -0.743145 0.669131 0
    outer loop
      vertex 21.4691 -23.8438 0
      vertex 25.9573 -18.8591 2.57
      vertex 25.9573 -18.8591 0
    endloop
  endfacet
  facet normal -0.743145 0.669131 0
    outer loop
      vertex 25.9573 -18.8591 2.57
      vertex 21.4691 -23.8438 0
      vertex 21.4691 -23.8438 2.57
    endloop
  endfacet
  facet normal 0.406737 0.913545 -0
    outer loop
      vertex -9.91481 -30.5146 0
      vertex -16.0425 -27.7864 2.57
      vertex -9.91481 -30.5146 2.57
    endloop
  endfacet
  facet normal 0.406737 0.913545 0
    outer loop
      vertex -16.0425 -27.7864 2.57
      vertex -9.91481 -30.5146 0
      vertex -16.0425 -27.7864 0
    endloop
  endfacet
  facet normal 0 1 -0
    outer loop
      vertex 3.3538 -31.9092 0
      vertex -3.3538 -31.9092 2.57
      vertex 3.3538 -31.9092 2.57
    endloop
  endfacet
  facet normal 0 1 0
    outer loop
      vertex -3.3538 -31.9092 2.57
      vertex 3.3538 -31.9092 0
      vertex -3.3538 -31.9092 0
    endloop
  endfacet
  facet normal 0.951057 0.309017 0
    outer loop
      vertex -29.3111 -13.0501 2.57
      vertex -31.3839 -6.67085 0
      vertex -31.3839 -6.67085 2.57
    endloop
  endfacet
  facet normal 0.951057 0.309017 0
    outer loop
      vertex -31.3839 -6.67085 0
      vertex -29.3111 -13.0501 2.57
      vertex -29.3111 -13.0501 0
    endloop
  endfacet
  facet normal 0.207912 0.978148 -0
    outer loop
      vertex -3.3538 -31.9092 0
      vertex -9.91481 -30.5146 2.57
      vertex -3.3538 -31.9092 2.57
    endloop
  endfacet
  facet normal 0.207912 0.978148 0
    outer loop
      vertex -9.91481 -30.5146 2.57
      vertex -3.3538 -31.9092 0
      vertex -9.91481 -30.5146 0
    endloop
  endfacet
  facet normal -0.994522 -0.104528 0
    outer loop
      vertex 34.9713 5.03 2.57
      vertex 34.7242 7.38086 6.12
      vertex 34.7242 7.38086 2.57
    endloop
  endfacet
  facet normal -0.994522 -0.104528 0
    outer loop
      vertex 34.7242 7.38086 6.12
      vertex 34.9713 5.03 2.57
      vertex 34.9713 5.03 6.12
    endloop
  endfacet
  facet normal 0.994522 -0.104529 0
    outer loop
      vertex -35.5 0 6.12
      vertex -34.7242 7.38086 2.57
      vertex -34.7242 7.38086 6.12
    endloop
  endfacet
  facet normal 0.994522 -0.104529 0
    outer loop
      vertex -34.7242 7.38086 2.57
      vertex -35.5 0 6.12
      vertex -35.5 0 2.57
    endloop
  endfacet
  facet normal 0 -1 0
    outer loop
      vertex -3.71076 35.3055 2.57
      vertex 3.71076 35.3055 6.12
      vertex -3.71076 35.3055 6.12
    endloop
  endfacet
  facet normal 0 -1 -0
    outer loop
      vertex 3.71076 35.3055 6.12
      vertex -3.71076 35.3055 2.57
      vertex 3.71076 35.3055 2.57
    endloop
  endfacet
  facet normal -0.587785 -0.809017 0
    outer loop
      vertex 17.75 30.7439 2.57
      vertex 23.7541 26.3816 6.12
      vertex 17.75 30.7439 6.12
    endloop
  endfacet
  facet normal -0.587785 -0.809017 -0
    outer loop
      vertex 23.7541 26.3816 6.12
      vertex 17.75 30.7439 2.57
      vertex 23.7541 26.3816 2.57
    endloop
  endfacet
  facet normal 0.743145 -0.669131 0
    outer loop
      vertex -28.7201 20.8664 6.12
      vertex -23.7541 26.3816 2.57
      vertex -23.7541 26.3816 6.12
    endloop
  endfacet
  facet normal 0.743145 -0.669131 0
    outer loop
      vertex -23.7541 26.3816 2.57
      vertex -28.7201 20.8664 6.12
      vertex -28.7201 20.8664 2.57
    endloop
  endfacet
  facet normal 0.866025 -0.5 0
    outer loop
      vertex -32.4309 14.4392 6.12
      vertex -28.7201 20.8664 2.57
      vertex -28.7201 20.8664 6.12
    endloop
  endfacet
  facet normal 0.866025 -0.5 0
    outer loop
      vertex -28.7201 20.8664 2.57
      vertex -32.4309 14.4392 6.12
      vertex -32.4309 14.4392 2.57
    endloop
  endfacet
  facet normal 0.405548 -0.910875 0.07641
    outer loop
      vertex -17.75 30.7439 6.12
      vertex -16.8473 31.1458 6.12
      vertex -10.9701 33.7625 6.12
    endloop
  endfacet
  facet normal 0.406737 -0.913545 0
    outer loop
      vertex -17.75 30.7439 6.12
      vertex -16.8473 31.1458 2.57
      vertex -16.8473 31.1458 6.12
    endloop
  endfacet
  facet normal 0.0998087 -0.224173 -0.969425
    outer loop
      vertex -16.8473 31.1458 2.57
      vertex -17.75 30.7439 2.57
      vertex -14.8363 32.0412 2.57
    endloop
  endfacet
  facet normal 0.406737 -0.913545 0
    outer loop
      vertex -17.75 30.7439 2.57
      vertex -16.8473 31.1458 2.57
      vertex -17.75 30.7439 6.12
    endloop
  endfacet
  facet normal 0.0329983 -0.0741151 -0.996704
    outer loop
      vertex -14.8363 32.0412 6.12
      vertex -10.9701 33.7625 6.12
      vertex -16.8473 31.1458 6.12
    endloop
  endfacet
  facet normal 0.406736 -0.913546 0
    outer loop
      vertex -14.8363 32.0412 2.57
      vertex -10.9701 33.7625 6.12
      vertex -14.8363 32.0412 6.12
    endloop
  endfacet
  facet normal 0.406736 -0.913546 0
    outer loop
      vertex -14.8363 32.0412 2.57
      vertex -10.9701 33.7625 2.57
      vertex -10.9701 33.7625 6.12
    endloop
  endfacet
  facet normal 0.0486138 -0.109188 0.992832
    outer loop
      vertex -10.9701 33.7625 2.57
      vertex -14.8363 32.0412 2.57
      vertex -17.75 30.7439 2.57
    endloop
  endfacet
  facet normal -0.866025 -0.5 0
    outer loop
      vertex 32.4309 14.4392 2.57
      vertex 28.7201 20.8664 6.12
      vertex 28.7201 20.8664 2.57
    endloop
  endfacet
  facet normal -0.866025 -0.5 0
    outer loop
      vertex 28.7201 20.8664 6.12
      vertex 32.4309 14.4392 2.57
      vertex 32.4309 14.4392 6.12
    endloop
  endfacet
  facet normal -0.951056 -0.309017 0
    outer loop
      vertex 34.7242 7.38086 2.57
      vertex 32.4309 14.4392 6.12
      vertex 32.4309 14.4392 2.57
    endloop
  endfacet
  facet normal -0.951056 -0.309017 0
    outer loop
      vertex 32.4309 14.4392 6.12
      vertex 34.7242 7.38086 2.57
      vertex 34.7242 7.38086 6.12
    endloop
  endfacet
  facet normal -0.743145 -0.669131 0
    outer loop
      vertex 28.7201 20.8664 2.57
      vertex 23.7541 26.3816 6.12
      vertex 23.7541 26.3816 2.57
    endloop
  endfacet
  facet normal -0.743145 -0.669131 0
    outer loop
      vertex 23.7541 26.3816 6.12
      vertex 28.7201 20.8664 2.57
      vertex 28.7201 20.8664 6.12
    endloop
  endfacet
  facet normal -0.207912 -0.978148 0
    outer loop
      vertex 3.71076 35.3055 2.57
      vertex 10.9701 33.7625 6.12
      vertex 3.71076 35.3055 6.12
    endloop
  endfacet
  facet normal -0.207912 -0.978148 -0
    outer loop
      vertex 10.9701 33.7625 6.12
      vertex 3.71076 35.3055 2.57
      vertex 10.9701 33.7625 2.57
    endloop
  endfacet
  facet normal -0.406737 -0.913545 0
    outer loop
      vertex 10.9701 33.7625 2.57
      vertex 17.75 30.7439 6.12
      vertex 10.9701 33.7625 6.12
    endloop
  endfacet
  facet normal -0.406737 -0.913545 -0
    outer loop
      vertex 17.75 30.7439 6.12
      vertex 10.9701 33.7625 2.57
      vertex 17.75 30.7439 2.57
    endloop
  endfacet
  facet normal 0.951056 -0.309017 0
    outer loop
      vertex -34.7242 7.38086 6.12
      vertex -32.4309 14.4392 2.57
      vertex -32.4309 14.4392 6.12
    endloop
  endfacet
  facet normal 0.951056 -0.309017 0
    outer loop
      vertex -32.4309 14.4392 2.57
      vertex -34.7242 7.38086 6.12
      vertex -34.7242 7.38086 2.57
    endloop
  endfacet
  facet normal 0.340182 -0.46822 0.815504
    outer loop
      vertex -23.7541 26.3816 6.12
      vertex -23.3471 26.6773 6.12
      vertex -17.75 30.7439 6.12
    endloop
  endfacet
  facet normal 0.587784 -0.809018 0
    outer loop
      vertex -23.7541 26.3816 6.12
      vertex -23.3471 26.6773 2.57
      vertex -23.3471 26.6773 6.12
    endloop
  endfacet
  facet normal 0.202012 -0.278045 -0.939086
    outer loop
      vertex -23.3471 26.6773 2.57
      vertex -23.7541 26.3816 2.57
      vertex -19.3449 29.5852 2.57
    endloop
  endfacet
  facet normal 0.587784 -0.809018 0
    outer loop
      vertex -23.7541 26.3816 2.57
      vertex -23.3471 26.6773 2.57
      vertex -23.7541 26.3816 6.12
    endloop
  endfacet
  facet normal 0.263022 -0.362018 0.894294
    outer loop
      vertex -19.3449 29.5852 6.12
      vertex -17.75 30.7439 6.12
      vertex -23.3471 26.6773 6.12
    endloop
  endfacet
  facet normal 0.587786 -0.809017 0
    outer loop
      vertex -19.3449 29.5852 2.57
      vertex -17.75 30.7439 6.12
      vertex -19.3449 29.5852 6.12
    endloop
  endfacet
  facet normal 0.587786 -0.809017 0
    outer loop
      vertex -19.3449 29.5852 2.57
      vertex -17.75 30.7439 2.57
      vertex -17.75 30.7439 6.12
    endloop
  endfacet
  facet normal 0.154875 -0.213167 -0.964662
    outer loop
      vertex -17.75 30.7439 2.57
      vertex -19.3449 29.5852 2.57
      vertex -23.7541 26.3816 2.57
    endloop
  endfacet
  facet normal 0.207912 -0.978148 0
    outer loop
      vertex -10.9701 33.7625 2.57
      vertex -3.71076 35.3055 6.12
      vertex -10.9701 33.7625 6.12
    endloop
  endfacet
  facet normal 0.207912 -0.978148 0
    outer loop
      vertex -3.71076 35.3055 6.12
      vertex -10.9701 33.7625 2.57
      vertex -3.71076 35.3055 2.57
    endloop
  endfacet
  facet normal -0.994522 0.104528 0
    outer loop
      vertex 34.7242 -7.38086 2.57
      vertex 34.9713 -5.03 6.12
      vertex 34.9713 -5.03 2.57
    endloop
  endfacet
  facet normal -0.994522 0.104528 0
    outer loop
      vertex 34.9713 -5.03 6.12
      vertex 34.7242 -7.38086 2.57
      vertex 34.7242 -7.38086 6.12
    endloop
  endfacet
  facet normal 0.207912 0.978148 -0
    outer loop
      vertex -3.71076 -35.3055 2.57
      vertex -10.9701 -33.7625 6.12
      vertex -3.71076 -35.3055 6.12
    endloop
  endfacet
  facet normal 0.207912 0.978148 0
    outer loop
      vertex -10.9701 -33.7625 6.12
      vertex -3.71076 -35.3055 2.57
      vertex -10.9701 -33.7625 2.57
    endloop
  endfacet
  facet normal -0.743145 0.669131 0
    outer loop
      vertex 23.7541 -26.3816 2.57
      vertex 28.7201 -20.8664 6.12
      vertex 28.7201 -20.8664 2.57
    endloop
  endfacet
  facet normal -0.743145 0.669131 0
    outer loop
      vertex 28.7201 -20.8664 6.12
      vertex 23.7541 -26.3816 2.57
      vertex 23.7541 -26.3816 6.12
    endloop
  endfacet
  facet normal -0.951056 0.309017 0
    outer loop
      vertex 32.4309 -14.4392 2.57
      vertex 34.7242 -7.38086 6.12
      vertex 34.7242 -7.38086 2.57
    endloop
  endfacet
  facet normal -0.951056 0.309017 0
    outer loop
      vertex 34.7242 -7.38086 6.12
      vertex 32.4309 -14.4392 2.57
      vertex 32.4309 -14.4392 6.12
    endloop
  endfacet
  facet normal -0.866025 0.5 0
    outer loop
      vertex 28.7201 -20.8664 2.57
      vertex 32.4309 -14.4392 6.12
      vertex 32.4309 -14.4392 2.57
    endloop
  endfacet
  facet normal -0.866025 0.5 0
    outer loop
      vertex 32.4309 -14.4392 6.12
      vertex 28.7201 -20.8664 2.57
      vertex 28.7201 -20.8664 6.12
    endloop
  endfacet
  facet normal 0.866025 0.5 0
    outer loop
      vertex -28.7201 -20.8664 6.12
      vertex -32.4309 -14.4392 2.57
      vertex -32.4309 -14.4392 6.12
    endloop
  endfacet
  facet normal 0.866025 0.5 0
    outer loop
      vertex -32.4309 -14.4392 2.57
      vertex -28.7201 -20.8664 6.12
      vertex -28.7201 -20.8664 2.57
    endloop
  endfacet
  facet normal 0.994522 0.104529 0
    outer loop
      vertex -34.7242 -7.38086 6.12
      vertex -35.5 0 2.57
      vertex -35.5 0 6.12
    endloop
  endfacet
  facet normal 0.994522 0.104529 0
    outer loop
      vertex -35.5 0 2.57
      vertex -34.7242 -7.38086 6.12
      vertex -34.7242 -7.38086 2.57
    endloop
  endfacet
  facet normal 0.951056 0.309017 0
    outer loop
      vertex -32.4309 -14.4392 6.12
      vertex -34.7242 -7.38086 2.57
      vertex -34.7242 -7.38086 6.12
    endloop
  endfacet
  facet normal 0.951056 0.309017 0
    outer loop
      vertex -34.7242 -7.38086 2.57
      vertex -32.4309 -14.4392 6.12
      vertex -32.4309 -14.4392 2.57
    endloop
  endfacet
  facet normal -0.207912 0.978148 0
    outer loop
      vertex 10.9701 -33.7625 2.57
      vertex 3.71076 -35.3055 6.12
      vertex 10.9701 -33.7625 6.12
    endloop
  endfacet
  facet normal -0.207912 0.978148 0
    outer loop
      vertex 3.71076 -35.3055 6.12
      vertex 10.9701 -33.7625 2.57
      vertex 3.71076 -35.3055 2.57
    endloop
  endfacet
  facet normal -0.587785 0.809017 0
    outer loop
      vertex 23.7541 -26.3816 2.57
      vertex 17.75 -30.7439 6.12
      vertex 23.7541 -26.3816 6.12
    endloop
  endfacet
  facet normal -0.587785 0.809017 0
    outer loop
      vertex 17.75 -30.7439 6.12
      vertex 23.7541 -26.3816 2.57
      vertex 17.75 -30.7439 2.57
    endloop
  endfacet
  facet normal 0 1 -0
    outer loop
      vertex 3.71076 -35.3055 2.57
      vertex -3.71076 -35.3055 6.12
      vertex 3.71076 -35.3055 6.12
    endloop
  endfacet
  facet normal 0 1 0
    outer loop
      vertex -3.71076 -35.3055 6.12
      vertex 3.71076 -35.3055 2.57
      vertex -3.71076 -35.3055 2.57
    endloop
  endfacet
  facet normal 0.170207 0.382291 -0.908231
    outer loop
      vertex -10.9701 -33.7625 6.12
      vertex -12.4406 -33.1078 6.12
      vertex -17.75 -30.7439 6.12
    endloop
  endfacet
  facet normal 0.406736 0.913546 0
    outer loop
      vertex -10.9701 -33.7625 6.12
      vertex -12.4406 -33.1078 2.57
      vertex -12.4406 -33.1078 6.12
    endloop
  endfacet
  facet normal 0.406736 0.913546 -0
    outer loop
      vertex -10.9701 -33.7625 2.57
      vertex -12.4406 -33.1078 2.57
      vertex -10.9701 -33.7625 6.12
    endloop
  endfacet
  facet normal 0.0913108 0.205087 0.974475
    outer loop
      vertex -17.75 -30.7439 2.57
      vertex -12.4406 -33.1078 2.57
      vertex -10.9701 -33.7625 2.57
    endloop
  endfacet
  facet normal 0.743145 0.669131 0
    outer loop
      vertex -23.7541 -26.3816 6.12
      vertex -28.7201 -20.8664 2.57
      vertex -28.7201 -20.8664 6.12
    endloop
  endfacet
  facet normal 0.743145 0.669131 0
    outer loop
      vertex -28.7201 -20.8664 2.57
      vertex -23.7541 -26.3816 6.12
      vertex -23.7541 -26.3816 2.57
    endloop
  endfacet
  facet normal 0 0 -1
    outer loop
      vertex 29.3793 -1.64185 2.57
      vertex 32.085 0 2.57
      vertex 31.5563 -5.03 2.57
    endloop
  endfacet
  facet normal 0 0 -1
    outer loop
      vertex 29.3793 1.64185 2.57
      vertex 32.085 0 2.57
      vertex 30.17 0 2.57
    endloop
  endfacet
  facet normal -0 0 -1
    outer loop
      vertex 32.085 0 2.57
      vertex 29.3793 -1.64185 2.57
      vertex 30.17 0 2.57
    endloop
  endfacet
  facet normal 0 0 -1
    outer loop
      vertex 31.5563 -5.03 2.57
      vertex 27.6027 -2.04735 2.57
      vertex 29.3793 -1.64185 2.57
    endloop
  endfacet
  facet normal -0 0 -1
    outer loop
      vertex 26.178 -0.911156 2.57
      vertex 23.3 -5.03 2.57
      vertex 26.178 0.911156 2.57
    endloop
  endfacet
  facet normal -0 0 -1
    outer loop
      vertex 27.6027 -2.04735 2.57
      vertex 23.3 -5.03 2.57
      vertex 26.178 -0.911156 2.57
    endloop
  endfacet
  facet normal 0 0 -1
    outer loop
      vertex 23.3 -5.03 2.57
      vertex 27.6027 -2.04735 2.57
      vertex 31.5563 -5.03 2.57
    endloop
  endfacet
  facet normal 0 0 -1
    outer loop
      vertex 32.085 0 2.57
      vertex 29.3793 1.64185 2.57
      vertex 31.5563 5.03 2.57
    endloop
  endfacet
  facet normal 0 0 -1
    outer loop
      vertex 27.6027 2.04735 2.57
      vertex 31.5563 5.03 2.57
      vertex 29.3793 1.64185 2.57
    endloop
  endfacet
  facet normal 0 0 -1
    outer loop
      vertex 27.6027 2.04735 2.57
      vertex 23.3 5.03 2.57
      vertex 31.5563 5.03 2.57
    endloop
  endfacet
  facet normal 0 0 -1
    outer loop
      vertex 26.178 0.911156 2.57
      vertex 23.3 5.03 2.57
      vertex 27.6027 2.04735 2.57
    endloop
  endfacet
  facet normal 0 0 -1
    outer loop
      vertex 23.3 5.03 2.57
      vertex 26.178 0.911156 2.57
      vertex 23.3 -5.03 2.57
    endloop
  endfacet
  facet normal 0 0 1
    outer loop
      vertex 31.3839 6.67085 2.57
      vertex 34.7242 7.38086 2.57
      vertex 32.4309 14.4392 2.57
    endloop
  endfacet
  facet normal 0 0 1
    outer loop
      vertex 34.7242 7.38086 2.57
      vertex 31.3839 6.67085 2.57
      vertex 34.9713 5.03 2.57
    endloop
  endfacet
  facet normal 0 0 1
    outer loop
      vertex 34.9713 5.03 2.57
      vertex 31.3839 6.67085 2.57
      vertex 31.5563 5.03 2.57
    endloop
  endfacet
  facet normal 0 0 1
    outer loop
      vertex 32.4309 14.4392 2.57
      vertex 29.3111 13.0501 2.57
      vertex 31.3839 6.67085 2.57
    endloop
  endfacet
  facet normal 0 0 1
    outer loop
      vertex 28.7201 20.8664 2.57
      vertex 29.3111 13.0501 2.57
      vertex 32.4309 14.4392 2.57
    endloop
  endfacet
  facet normal 0 0 1
    outer loop
      vertex 28.7201 20.8664 2.57
      vertex 25.9573 18.8591 2.57
      vertex 29.3111 13.0501 2.57
    endloop
  endfacet
  facet normal 0 0 1
    outer loop
      vertex 23.7541 26.3816 2.57
      vertex 25.9573 18.8591 2.57
      vertex 28.7201 20.8664 2.57
    endloop
  endfacet
  facet normal 0 0 1
    outer loop
      vertex 23.7541 26.3816 2.57
      vertex 21.4691 23.8438 2.57
      vertex 25.9573 18.8591 2.57
    endloop
  endfacet
  facet normal 0 0 1
    outer loop
      vertex 17.75 30.7439 2.57
      vertex 21.4691 23.8438 2.57
      vertex 23.7541 26.3816 2.57
    endloop
  endfacet
  facet normal 0 0 1
    outer loop
      vertex 17.75 30.7439 2.57
      vertex 16.0425 27.7864 2.57
      vertex 21.4691 23.8438 2.57
    endloop
  endfacet
  facet normal 0 0 1
    outer loop
      vertex 10.9701 33.7625 2.57
      vertex 16.0425 27.7864 2.57
      vertex 17.75 30.7439 2.57
    endloop
  endfacet
  facet normal 0 0 1
    outer loop
      vertex 10.9701 33.7625 2.57
      vertex 9.91481 30.5146 2.57
      vertex 16.0425 27.7864 2.57
    endloop
  endfacet
  facet normal 0 0 1
    outer loop
      vertex 3.71076 35.3055 2.57
      vertex 9.91481 30.5146 2.57
      vertex 10.9701 33.7625 2.57
    endloop
  endfacet
  facet normal 0 0 1
    outer loop
      vertex 3.71076 35.3055 2.57
      vertex 3.3538 31.9092 2.57
      vertex 9.91481 30.5146 2.57
    endloop
  endfacet
  facet normal 0 0 1
    outer loop
      vertex 3.71076 35.3055 2.57
      vertex -3.3538 31.9092 2.57
      vertex 3.3538 31.9092 2.57
    endloop
  endfacet
  facet normal -0 0 1
    outer loop
      vertex -3.71076 35.3055 2.57
      vertex -3.3538 31.9092 2.57
      vertex 3.71076 35.3055 2.57
    endloop
  endfacet
  facet normal 0 0 1
    outer loop
      vertex -3.71076 35.3055 2.57
      vertex -9.91481 30.5146 2.57
      vertex -3.3538 31.9092 2.57
    endloop
  endfacet
  facet normal -0 0 1
    outer loop
      vertex -10.9701 33.7625 2.57
      vertex -9.91481 30.5146 2.57
      vertex -3.71076 35.3055 2.57
    endloop
  endfacet
  facet normal 0 0 1
    outer loop
      vertex -10.9701 33.7625 2.57
      vertex -16.0425 27.7864 2.57
      vertex -9.91481 30.5146 2.57
    endloop
  endfacet
  facet normal -0 0 1
    outer loop
      vertex -17.75 30.7439 2.57
      vertex -16.0425 27.7864 2.57
      vertex -10.9701 33.7625 2.57
    endloop
  endfacet
  facet normal 0 0 1
    outer loop
      vertex -17.75 30.7439 2.57
      vertex -21.4691 23.8438 2.57
      vertex -16.0425 27.7864 2.57
    endloop
  endfacet
  facet normal -0 0 1
    outer loop
      vertex -23.7541 26.3816 2.57
      vertex -21.4691 23.8438 2.57
      vertex -17.75 30.7439 2.57
    endloop
  endfacet
  facet normal 0 0 1
    outer loop
      vertex -23.7541 26.3816 2.57
      vertex -25.9573 18.8591 2.57
      vertex -21.4691 23.8438 2.57
    endloop
  endfacet
  facet normal -0 0 1
    outer loop
      vertex -28.7201 20.8664 2.57
      vertex -25.9573 18.8591 2.57
      vertex -23.7541 26.3816 2.57
    endloop
  endfacet
  facet normal 0 0 1
    outer loop
      vertex -28.7201 20.8664 2.57
      vertex -29.3111 13.0501 2.57
      vertex -25.9573 18.8591 2.57
    endloop
  endfacet
  facet normal -0 0 1
    outer loop
      vertex -32.4309 14.4392 2.57
      vertex -29.3111 13.0501 2.57
      vertex -28.7201 20.8664 2.57
    endloop
  endfacet
  facet normal -0 0 1
    outer loop
      vertex -34.7242 7.38086 2.57
      vertex -31.3839 6.67085 2.57
      vertex -32.4309 14.4392 2.57
    endloop
  endfacet
  facet normal 0 0 1
    outer loop
      vertex -29.3111 13.0501 2.57
      vertex -32.4309 14.4392 2.57
      vertex -31.3839 6.67085 2.57
    endloop
  endfacet
  facet normal -0 0 1
    outer loop
      vertex 31.3839 -6.67085 2.57
      vertex 34.7242 -7.38086 2.57
      vertex 34.9713 -5.03 2.57
    endloop
  endfacet
  facet normal 0 0 1
    outer loop
      vertex 31.3839 -6.67085 2.57
      vertex 34.9713 -5.03 2.57
      vertex 31.5563 -5.03 2.57
    endloop
  endfacet
  facet normal 0 0 1
    outer loop
      vertex 34.7242 -7.38086 2.57
      vertex 31.3839 -6.67085 2.57
      vertex 32.4309 -14.4392 2.57
    endloop
  endfacet
  facet normal -0 0 1
    outer loop
      vertex 29.3111 -13.0501 2.57
      vertex 32.4309 -14.4392 2.57
      vertex 31.3839 -6.67085 2.57
    endloop
  endfacet
  facet normal 0 0 1
    outer loop
      vertex 29.3111 -13.0501 2.57
      vertex 28.7201 -20.8664 2.57
      vertex 32.4309 -14.4392 2.57
    endloop
  endfacet
  facet normal -0 0 1
    outer loop
      vertex 25.9573 -18.8591 2.57
      vertex 28.7201 -20.8664 2.57
      vertex 29.3111 -13.0501 2.57
    endloop
  endfacet
  facet normal 0 0 1
    outer loop
      vertex 25.9573 -18.8591 2.57
      vertex 23.7541 -26.3816 2.57
      vertex 28.7201 -20.8664 2.57
    endloop
  endfacet
  facet normal -0 0 1
    outer loop
      vertex 21.4691 -23.8438 2.57
      vertex 23.7541 -26.3816 2.57
      vertex 25.9573 -18.8591 2.57
    endloop
  endfacet
  facet normal 0 0 1
    outer loop
      vertex 21.4691 -23.8438 2.57
      vertex 17.75 -30.7439 2.57
      vertex 23.7541 -26.3816 2.57
    endloop
  endfacet
  facet normal -0 0 1
    outer loop
      vertex 16.0425 -27.7864 2.57
      vertex 17.75 -30.7439 2.57
      vertex 21.4691 -23.8438 2.57
    endloop
  endfacet
  facet normal 0 0 1
    outer loop
      vertex 16.0425 -27.7864 2.57
      vertex 10.9701 -33.7625 2.57
      vertex 17.75 -30.7439 2.57
    endloop
  endfacet
  facet normal -0 0 1
    outer loop
      vertex 9.91481 -30.5146 2.57
      vertex 10.9701 -33.7625 2.57
      vertex 16.0425 -27.7864 2.57
    endloop
  endfacet
  facet normal 0 0 1
    outer loop
      vertex 9.91481 -30.5146 2.57
      vertex 3.71076 -35.3055 2.57
      vertex 10.9701 -33.7625 2.57
    endloop
  endfacet
  facet normal -0 0 1
    outer loop
      vertex 3.3538 -31.9092 2.57
      vertex 3.71076 -35.3055 2.57
      vertex 9.91481 -30.5146 2.57
    endloop
  endfacet
  facet normal -0 0 1
    outer loop
      vertex -3.3538 -31.9092 2.57
      vertex 3.71076 -35.3055 2.57
      vertex 3.3538 -31.9092 2.57
    endloop
  endfacet
  facet normal 0 0 1
    outer loop
      vertex -3.3538 -31.9092 2.57
      vertex -3.71076 -35.3055 2.57
      vertex 3.71076 -35.3055 2.57
    endloop
  endfacet
  facet normal 0 0 1
    outer loop
      vertex -9.91481 -30.5146 2.57
      vertex -3.71076 -35.3055 2.57
      vertex -3.3538 -31.9092 2.57
    endloop
  endfacet
  facet normal 0 0 1
    outer loop
      vertex -9.91481 -30.5146 2.57
      vertex -10.9701 -33.7625 2.57
      vertex -3.71076 -35.3055 2.57
    endloop
  endfacet
  facet normal 0 0 1
    outer loop
      vertex -16.0425 -27.7864 2.57
      vertex -10.9701 -33.7625 2.57
      vertex -9.91481 -30.5146 2.57
    endloop
  endfacet
  facet normal 0 0 1
    outer loop
      vertex -16.0425 -27.7864 2.57
      vertex -17.75 -30.7439 2.57
      vertex -10.9701 -33.7625 2.57
    endloop
  endfacet
  facet normal 0 0 1
    outer loop
      vertex -21.4691 -23.8438 2.57
      vertex -17.75 -30.7439 2.57
      vertex -16.0425 -27.7864 2.57
    endloop
  endfacet
  facet normal 0 0 1
    outer loop
      vertex -21.4691 -23.8438 2.57
      vertex -23.7541 -26.3816 2.57
      vertex -17.75 -30.7439 2.57
    endloop
  endfacet
  facet normal 0 0 1
    outer loop
      vertex -25.9573 -18.8591 2.57
      vertex -23.7541 -26.3816 2.57
      vertex -21.4691 -23.8438 2.57
    endloop
  endfacet
  facet normal 0 0 1
    outer loop
      vertex -25.9573 -18.8591 2.57
      vertex -28.7201 -20.8664 2.57
      vertex -23.7541 -26.3816 2.57
    endloop
  endfacet
  facet normal 0 0 1
    outer loop
      vertex -29.3111 -13.0501 2.57
      vertex -28.7201 -20.8664 2.57
      vertex -25.9573 -18.8591 2.57
    endloop
  endfacet
  facet normal 0 0 1
    outer loop
      vertex -32.4309 -14.4392 2.57
      vertex -29.3111 -13.0501 2.57
      vertex -31.3839 -6.67085 2.57
    endloop
  endfacet
  facet normal 0 0 1
    outer loop
      vertex -29.3111 -13.0501 2.57
      vertex -32.4309 -14.4392 2.57
      vertex -28.7201 -20.8664 2.57
    endloop
  endfacet
  facet normal 0 0 1
    outer loop
      vertex -34.7242 -7.38086 2.57
      vertex -31.3839 -6.67085 2.57
      vertex -32.085 0 2.57
    endloop
  endfacet
  facet normal 0 0 1
    outer loop
      vertex -31.3839 6.67085 2.57
      vertex -34.7242 7.38086 2.57
      vertex -32.085 0 2.57
    endloop
  endfacet
  facet normal 0 0 1
    outer loop
      vertex -35.5 0 2.57
      vertex -32.085 0 2.57
      vertex -34.7242 7.38086 2.57
    endloop
  endfacet
  facet normal 0 0 1
    outer loop
      vertex -31.3839 -6.67085 2.57
      vertex -34.7242 -7.38086 2.57
      vertex -32.4309 -14.4392 2.57
    endloop
  endfacet
  facet normal 0 0 1
    outer loop
      vertex -32.085 0 2.57
      vertex -35.5 0 2.57
      vertex -34.7242 -7.38086 2.57
    endloop
  endfacet
  facet normal -0.406737 0.913545 0
    outer loop
      vertex 17.75 -30.7439 2.57
      vertex 10.9701 -33.7625 6.12
      vertex 17.75 -30.7439 6.12
    endloop
  endfacet
  facet normal -0.406737 0.913545 0
    outer loop
      vertex 10.9701 -33.7625 6.12
      vertex 17.75 -30.7439 2.57
      vertex 10.9701 -33.7625 2.57
    endloop
  endfacet
  facet normal 0.566571 0.779818 -0.266237
    outer loop
      vertex -17.75 -30.7439 6.12
      vertex -21.2495 -28.2014 6.12
      vertex -23.7541 -26.3816 6.12
    endloop
  endfacet
  facet normal 0.587785 0.809017 -0
    outer loop
      vertex -21.2495 -28.2014 2.57
      vertex -23.7541 -26.3816 6.12
      vertex -21.2495 -28.2014 6.12
    endloop
  endfacet
  facet normal 0.587785 0.809017 0
    outer loop
      vertex -21.2495 -28.2014 2.57
      vertex -23.7541 -26.3816 2.57
      vertex -23.7541 -26.3816 6.12
    endloop
  endfacet
  facet normal 0.514502 0.708151 0.483538
    outer loop
      vertex -23.7541 -26.3816 2.57
      vertex -21.2495 -28.2014 2.57
      vertex -17.75 -30.7439 2.57
    endloop
  endfacet
  facet normal -1 0 0
    outer loop
      vertex 23.3 -5.03 2.57
      vertex 23.3 5.03 6.12
      vertex 23.3 5.03 2.57
    endloop
  endfacet
  facet normal -1 -0 0
    outer loop
      vertex 23.3 5.03 6.12
      vertex 23.3 -5.03 2.57
      vertex 23.3 -5.03 6.12
    endloop
  endfacet
  facet normal 0 -1 0
    outer loop
      vertex 31.5563 -5.03 2.57
      vertex 23.3 -5.03 6.12
      vertex 23.3 -5.03 2.57
    endloop
  endfacet
  facet normal 0 -1 0
    outer loop
      vertex 23.3 -5.03 6.12
      vertex 31.5563 -5.03 2.57
      vertex 34.9713 -5.03 6.12
    endloop
  endfacet
  facet normal 0 -1 -0
    outer loop
      vertex 34.9713 -5.03 6.12
      vertex 31.5563 -5.03 2.57
      vertex 34.9713 -5.03 2.57
    endloop
  endfacet
  facet normal 0 1 0
    outer loop
      vertex 31.5563 5.03 2.57
      vertex 34.9713 5.03 6.12
      vertex 34.9713 5.03 2.57
    endloop
  endfacet
  facet normal 0 1 0
    outer loop
      vertex 34.9713 5.03 6.12
      vertex 31.5563 5.03 2.57
      vertex 23.3 5.03 6.12
    endloop
  endfacet
  facet normal 0 1 0
    outer loop
      vertex 23.3 5.03 6.12
      vertex 31.5563 5.03 2.57
      vertex 23.3 5.03 2.57
    endloop
  endfacet
  facet normal -0.900969 -0.433883 0
    outer loop
      vertex 30.17 0 2.57
      vertex 29.3793 1.64185 6.12
      vertex 29.3793 1.64185 2.57
    endloop
  endfacet
  facet normal -0.900969 -0.433883 0
    outer loop
      vertex 29.3793 1.64185 6.12
      vertex 30.17 0 2.57
      vertex 30.17 0 6.12
    endloop
  endfacet
  facet normal 1 -0 0
    outer loop
      vertex 26.178 -0.911156 6.12
      vertex 26.178 0.911156 2.57
      vertex 26.178 0.911156 6.12
    endloop
  endfacet
  facet normal 1 0 0
    outer loop
      vertex 26.178 0.911156 2.57
      vertex 26.178 -0.911156 6.12
      vertex 26.178 -0.911156 2.57
    endloop
  endfacet
  facet normal 0.623489 -0.781832 0
    outer loop
      vertex 26.178 0.911156 2.57
      vertex 27.6027 2.04735 6.12
      vertex 26.178 0.911156 6.12
    endloop
  endfacet
  facet normal 0.623489 -0.781832 0
    outer loop
      vertex 27.6027 2.04735 6.12
      vertex 26.178 0.911156 2.57
      vertex 27.6027 2.04735 2.57
    endloop
  endfacet
  facet normal -0.222521 -0.974928 0
    outer loop
      vertex 27.6027 2.04735 2.57
      vertex 29.3793 1.64185 6.12
      vertex 27.6027 2.04735 6.12
    endloop
  endfacet
  facet normal -0.222521 -0.974928 -0
    outer loop
      vertex 29.3793 1.64185 6.12
      vertex 27.6027 2.04735 2.57
      vertex 29.3793 1.64185 2.57
    endloop
  endfacet
  facet normal -0.900969 0.433883 0
    outer loop
      vertex 29.3793 -1.64185 2.57
      vertex 30.17 0 6.12
      vertex 30.17 0 2.57
    endloop
  endfacet
  facet normal -0.900969 0.433883 0
    outer loop
      vertex 30.17 0 6.12
      vertex 29.3793 -1.64185 2.57
      vertex 29.3793 -1.64185 6.12
    endloop
  endfacet
  facet normal 0.623489 0.781832 -0
    outer loop
      vertex 27.6027 -2.04735 2.57
      vertex 26.178 -0.911156 6.12
      vertex 27.6027 -2.04735 6.12
    endloop
  endfacet
  facet normal 0.623489 0.781832 0
    outer loop
      vertex 26.178 -0.911156 6.12
      vertex 27.6027 -2.04735 2.57
      vertex 26.178 -0.911156 2.57
    endloop
  endfacet
  facet normal -0.222521 0.974928 0
    outer loop
      vertex 29.3793 -1.64185 2.57
      vertex 27.6027 -2.04735 6.12
      vertex 29.3793 -1.64185 6.12
    endloop
  endfacet
  facet normal -0.222521 0.974928 0
    outer loop
      vertex 27.6027 -2.04735 6.12
      vertex 29.3793 -1.64185 2.57
      vertex 27.6027 -2.04735 2.57
    endloop
  endfacet
  facet normal -0.529919 0.848048 0
    outer loop
      vertex -16.8473 31.1458 2.57
      vertex -19.3449 29.5852 6.12
      vertex -16.8473 31.1458 6.12
    endloop
  endfacet
  facet normal -0.529919 0.848048 0
    outer loop
      vertex -19.3449 29.5852 6.12
      vertex -16.8473 31.1458 2.57
      vertex -19.3449 29.5852 2.57
    endloop
  endfacet
  facet normal 0 0 1
    outer loop
      vertex -8.43824 21.8022 6.12
      vertex -13.796 24.7479 6.12
      vertex -13.1984 23.0263 6.12
    endloop
  endfacet
  facet normal 0 0 1
    outer loop
      vertex -14.8363 32.0412 6.12
      vertex -13.796 24.7479 6.12
      vertex -8.43824 21.8022 6.12
    endloop
  endfacet
  facet normal 0 0 1
    outer loop
      vertex -14.8363 32.0412 6.12
      vertex -15.5145 25.354 6.12
      vertex -13.796 24.7479 6.12
    endloop
  endfacet
  facet normal -0 0 1
    outer loop
      vertex -16.8473 31.1458 6.12
      vertex -15.5145 25.354 6.12
      vertex -14.8363 32.0412 6.12
    endloop
  endfacet
  facet normal -0 0 1
    outer loop
      vertex -19.3449 29.5852 6.12
      vertex -15.5145 25.354 6.12
      vertex -16.8473 31.1458 6.12
    endloop
  endfacet
  facet normal 0 0 1
    outer loop
      vertex -15.5145 25.354 6.12
      vertex -19.3449 29.5852 6.12
      vertex -17.06 24.3884 6.12
    endloop
  endfacet
  facet normal -0 0 1
    outer loop
      vertex -23.3471 26.6773 6.12
      vertex -17.06 24.3884 6.12
      vertex -19.3449 29.5852 6.12
    endloop
  endfacet
  facet normal 0 0 1
    outer loop
      vertex -14.1718 21.4858 6.12
      vertex -8.43824 21.8022 6.12
      vertex -13.1984 23.0263 6.12
    endloop
  endfacet
  facet normal 0 0 1
    outer loop
      vertex -16.9696 16.4712 6.12
      vertex -14.1718 21.4858 6.12
      vertex -15.9832 21.2862 6.12
    endloop
  endfacet
  facet normal -0 0 1
    outer loop
      vertex -14.1718 21.4858 6.12
      vertex -16.9696 16.4712 6.12
      vertex -8.43824 21.8022 6.12
    endloop
  endfacet
  facet normal 0 0 1
    outer loop
      vertex -17.2685 22.578 6.12
      vertex -16.9696 16.4712 6.12
      vertex -15.9832 21.2862 6.12
    endloop
  endfacet
  facet normal 0 0 1
    outer loop
      vertex -17.06 24.3884 6.12
      vertex -23.3471 26.6773 6.12
      vertex -17.2685 22.578 6.12
    endloop
  endfacet
  facet normal 0 0 1
    outer loop
      vertex -17.2685 22.578 6.12
      vertex -23.3471 26.6773 6.12
      vertex -16.9696 16.4712 6.12
    endloop
  endfacet
  facet normal 0.529919 -0.848048 0
    outer loop
      vertex -16.9696 16.4712 2.57
      vertex -8.43824 21.8022 6.12
      vertex -16.9696 16.4712 6.12
    endloop
  endfacet
  facet normal 0.529919 -0.848048 0
    outer loop
      vertex -8.43824 21.8022 6.12
      vertex -16.9696 16.4712 2.57
      vertex -8.43824 21.8022 2.57
    endloop
  endfacet
  facet normal 0.848048 0.529919 0
    outer loop
      vertex -8.43824 21.8022 6.12
      vertex -14.8363 32.0412 2.57
      vertex -14.8363 32.0412 6.12
    endloop
  endfacet
  facet normal 0.848048 0.529919 0
    outer loop
      vertex -14.8363 32.0412 2.57
      vertex -8.43824 21.8022 6.12
      vertex -8.43824 21.8022 2.57
    endloop
  endfacet
  facet normal -0 0 -1
    outer loop
      vertex -8.43824 21.8022 2.57
      vertex -14.1718 21.4858 2.57
      vertex -13.1984 23.0263 2.57
    endloop
  endfacet
  facet normal 0 0 -1
    outer loop
      vertex -16.9696 16.4712 2.57
      vertex -14.1718 21.4858 2.57
      vertex -8.43824 21.8022 2.57
    endloop
  endfacet
  facet normal 0 0 -1
    outer loop
      vertex -14.1718 21.4858 2.57
      vertex -16.9696 16.4712 2.57
      vertex -15.9832 21.2862 2.57
    endloop
  endfacet
  facet normal 0 0 -1
    outer loop
      vertex -16.9696 16.4712 2.57
      vertex -17.2685 22.578 2.57
      vertex -15.9832 21.2862 2.57
    endloop
  endfacet
  facet normal 0 0 -1
    outer loop
      vertex -23.3471 26.6773 2.57
      vertex -17.2685 22.578 2.57
      vertex -16.9696 16.4712 2.57
    endloop
  endfacet
  facet normal 0 0 -1
    outer loop
      vertex -17.2685 22.578 2.57
      vertex -23.3471 26.6773 2.57
      vertex -19.3449 29.5852 2.57
    endloop
  endfacet
  facet normal 0 0 -1
    outer loop
      vertex -13.796 24.7479 2.57
      vertex -8.43824 21.8022 2.57
      vertex -13.1984 23.0263 2.57
    endloop
  endfacet
  facet normal 0 0 -1
    outer loop
      vertex -13.796 24.7479 2.57
      vertex -14.8363 32.0412 2.57
      vertex -8.43824 21.8022 2.57
    endloop
  endfacet
  facet normal 0 0 -1
    outer loop
      vertex -15.5145 25.354 2.57
      vertex -14.8363 32.0412 2.57
      vertex -13.796 24.7479 2.57
    endloop
  endfacet
  facet normal 0 0 -1
    outer loop
      vertex -15.5145 25.354 2.57
      vertex -16.8473 31.1458 2.57
      vertex -14.8363 32.0412 2.57
    endloop
  endfacet
  facet normal 0 0 -1
    outer loop
      vertex -19.3449 29.5852 2.57
      vertex -15.5145 25.354 2.57
      vertex -17.06 24.3884 2.57
    endloop
  endfacet
  facet normal 0 0 -1
    outer loop
      vertex -19.3449 29.5852 2.57
      vertex -17.06 24.3884 2.57
      vertex -17.2685 22.578 2.57
    endloop
  endfacet
  facet normal 0 0 -1
    outer loop
      vertex -15.5145 25.354 2.57
      vertex -19.3449 29.5852 2.57
      vertex -16.8473 31.1458 2.57
    endloop
  endfacet
  facet normal -0.848048 -0.529919 0
    outer loop
      vertex -16.9696 16.4712 2.57
      vertex -23.3471 26.6773 6.12
      vertex -23.3471 26.6773 2.57
    endloop
  endfacet
  facet normal -0.848048 -0.529919 0
    outer loop
      vertex -23.3471 26.6773 6.12
      vertex -16.9696 16.4712 2.57
      vertex -16.9696 16.4712 6.12
    endloop
  endfacet
  facet normal -0.845395 0.534141 0
    outer loop
      vertex -14.1718 21.4858 2.57
      vertex -13.1984 23.0263 6.12
      vertex -13.1984 23.0263 2.57
    endloop
  endfacet
  facet normal -0.845395 0.534141 0
    outer loop
      vertex -13.1984 23.0263 6.12
      vertex -14.1718 21.4858 2.57
      vertex -14.1718 21.4858 6.12
    endloop
  endfacet
  facet normal 0.529919 -0.848048 0
    outer loop
      vertex -17.06 24.3884 2.57
      vertex -15.5145 25.354 6.12
      vertex -17.06 24.3884 6.12
    endloop
  endfacet
  facet normal 0.529919 -0.848048 0
    outer loop
      vertex -15.5145 25.354 6.12
      vertex -17.06 24.3884 2.57
      vertex -15.5145 25.354 2.57
    endloop
  endfacet
  facet normal -0.332632 -0.943057 0
    outer loop
      vertex -15.5145 25.354 2.57
      vertex -13.796 24.7479 6.12
      vertex -15.5145 25.354 6.12
    endloop
  endfacet
  facet normal -0.332632 -0.943057 -0
    outer loop
      vertex -13.796 24.7479 6.12
      vertex -15.5145 25.354 2.57
      vertex -13.796 24.7479 2.57
    endloop
  endfacet
  facet normal -0.944704 -0.327925 0
    outer loop
      vertex -13.1984 23.0263 2.57
      vertex -13.796 24.7479 6.12
      vertex -13.796 24.7479 2.57
    endloop
  endfacet
  facet normal -0.944704 -0.327925 0
    outer loop
      vertex -13.796 24.7479 6.12
      vertex -13.1984 23.0263 2.57
      vertex -13.1984 23.0263 6.12
    endloop
  endfacet
  facet normal -0.109486 0.993988 0
    outer loop
      vertex -14.1718 21.4858 2.57
      vertex -15.9832 21.2862 6.12
      vertex -14.1718 21.4858 6.12
    endloop
  endfacet
  facet normal -0.109486 0.993988 0
    outer loop
      vertex -15.9832 21.2862 6.12
      vertex -14.1718 21.4858 2.57
      vertex -15.9832 21.2862 2.57
    endloop
  endfacet
  facet normal 0.99343 -0.114442 0
    outer loop
      vertex -17.2685 22.578 6.12
      vertex -17.06 24.3884 2.57
      vertex -17.06 24.3884 6.12
    endloop
  endfacet
  facet normal 0.99343 -0.114442 0
    outer loop
      vertex -17.06 24.3884 2.57
      vertex -17.2685 22.578 6.12
      vertex -17.2685 22.578 2.57
    endloop
  endfacet
  facet normal 0.708867 0.705342 0
    outer loop
      vertex -15.9832 21.2862 6.12
      vertex -17.2685 22.578 2.57
      vertex -17.2685 22.578 6.12
    endloop
  endfacet
  facet normal 0.708867 0.705342 0
    outer loop
      vertex -17.2685 22.578 2.57
      vertex -15.9832 21.2862 6.12
      vertex -15.9832 21.2862 2.57
    endloop
  endfacet
  facet normal 0 0 1
    outer loop
      vertex -6.27737 -23.6173 6.12
      vertex -12.0045 -23.2008 6.12
      vertex -11.0582 -24.7582 6.12
    endloop
  endfacet
  facet normal 0 0 1
    outer loop
      vertex -14.7144 -18.1382 6.12
      vertex -12.0045 -23.2008 6.12
      vertex -6.27737 -23.6173 6.12
    endloop
  endfacet
  facet normal 0 0 1
    outer loop
      vertex -12.0045 -23.2008 6.12
      vertex -14.7144 -18.1382 6.12
      vertex -13.8121 -22.9697 6.12
    endloop
  endfacet
  facet normal 0 0 1
    outer loop
      vertex -14.7144 -18.1382 6.12
      vertex -15.1198 -24.2389 6.12
      vertex -13.8121 -22.9697 6.12
    endloop
  endfacet
  facet normal 0 0 1
    outer loop
      vertex -21.2495 -28.2014 6.12
      vertex -15.1198 -24.2389 6.12
      vertex -14.7144 -18.1382 6.12
    endloop
  endfacet
  facet normal 0 0 1
    outer loop
      vertex -15.1198 -24.2389 6.12
      vertex -21.2495 -28.2014 6.12
      vertex -17.75 -30.7439 6.12
    endloop
  endfacet
  facet normal 0 0 1
    outer loop
      vertex -11.6857 -26.469 6.12
      vertex -6.27737 -23.6173 6.12
      vertex -11.0582 -24.7582 6.12
    endloop
  endfacet
  facet normal -0 0 1
    outer loop
      vertex -11.6857 -26.469 6.12
      vertex -12.4406 -33.1078 6.12
      vertex -6.27737 -23.6173 6.12
    endloop
  endfacet
  facet normal -0 0 1
    outer loop
      vertex -13.4146 -27.0451 6.12
      vertex -12.4406 -33.1078 6.12
      vertex -11.6857 -26.469 6.12
    endloop
  endfacet
  facet normal 0 0 1
    outer loop
      vertex -17.75 -30.7439 6.12
      vertex -13.4146 -27.0451 6.12
      vertex -14.9429 -26.0526 6.12
    endloop
  endfacet
  facet normal 0 0 1
    outer loop
      vertex -13.4146 -27.0451 6.12
      vertex -17.75 -30.7439 6.12
      vertex -12.4406 -33.1078 6.12
    endloop
  endfacet
  facet normal 0 0 1
    outer loop
      vertex -17.75 -30.7439 6.12
      vertex -14.9429 -26.0526 6.12
      vertex -15.1198 -24.2389 6.12
    endloop
  endfacet
  facet normal 0.544639 0.838671 -0
    outer loop
      vertex -6.27737 -23.6173 2.57
      vertex -14.7144 -18.1382 6.12
      vertex -6.27737 -23.6173 6.12
    endloop
  endfacet
  facet normal 0.544639 0.838671 0
    outer loop
      vertex -14.7144 -18.1382 6.12
      vertex -6.27737 -23.6173 2.57
      vertex -14.7144 -18.1382 2.57
    endloop
  endfacet
  facet normal -0.838671 0.544639 0
    outer loop
      vertex -21.2495 -28.2014 2.57
      vertex -14.7144 -18.1382 6.12
      vertex -14.7144 -18.1382 2.57
    endloop
  endfacet
  facet normal -0.838671 0.544639 0
    outer loop
      vertex -14.7144 -18.1382 6.12
      vertex -21.2495 -28.2014 2.57
      vertex -21.2495 -28.2014 6.12
    endloop
  endfacet
  facet normal 0 0 -1
    outer loop
      vertex -6.27737 -23.6173 2.57
      vertex -11.6857 -26.469 2.57
      vertex -11.0582 -24.7582 2.57
    endloop
  endfacet
  facet normal 0 0 -1
    outer loop
      vertex -12.4406 -33.1078 2.57
      vertex -11.6857 -26.469 2.57
      vertex -6.27737 -23.6173 2.57
    endloop
  endfacet
  facet normal 0 0 -1
    outer loop
      vertex -12.4406 -33.1078 2.57
      vertex -13.4146 -27.0451 2.57
      vertex -11.6857 -26.469 2.57
    endloop
  endfacet
  facet normal 0 0 -1
    outer loop
      vertex -17.75 -30.7439 2.57
      vertex -13.4146 -27.0451 2.57
      vertex -12.4406 -33.1078 2.57
    endloop
  endfacet
  facet normal 0 0 -1
    outer loop
      vertex -21.2495 -28.2014 2.57
      vertex -14.9429 -26.0526 2.57
      vertex -17.75 -30.7439 2.57
    endloop
  endfacet
  facet normal -0 0 -1
    outer loop
      vertex -13.4146 -27.0451 2.57
      vertex -17.75 -30.7439 2.57
      vertex -14.9429 -26.0526 2.57
    endloop
  endfacet
  facet normal 0 0 -1
    outer loop
      vertex -12.0045 -23.2008 2.57
      vertex -6.27737 -23.6173 2.57
      vertex -11.0582 -24.7582 2.57
    endloop
  endfacet
  facet normal 0 0 -1
    outer loop
      vertex -14.7144 -18.1382 2.57
      vertex -12.0045 -23.2008 2.57
      vertex -13.8121 -22.9697 2.57
    endloop
  endfacet
  facet normal 0 0 -1
    outer loop
      vertex -12.0045 -23.2008 2.57
      vertex -14.7144 -18.1382 2.57
      vertex -6.27737 -23.6173 2.57
    endloop
  endfacet
  facet normal 0 0 -1
    outer loop
      vertex -15.1198 -24.2389 2.57
      vertex -14.7144 -18.1382 2.57
      vertex -13.8121 -22.9697 2.57
    endloop
  endfacet
  facet normal -0 0 -1
    outer loop
      vertex -14.9429 -26.0526 2.57
      vertex -21.2495 -28.2014 2.57
      vertex -15.1198 -24.2389 2.57
    endloop
  endfacet
  facet normal -0 0 -1
    outer loop
      vertex -15.1198 -24.2389 2.57
      vertex -21.2495 -28.2014 2.57
      vertex -14.7144 -18.1382 2.57
    endloop
  endfacet
  facet normal 0.838671 -0.544639 0
    outer loop
      vertex -12.4406 -33.1078 6.12
      vertex -6.27737 -23.6173 2.57
      vertex -6.27737 -23.6173 6.12
    endloop
  endfacet
  facet normal 0.838671 -0.544639 0
    outer loop
      vertex -6.27737 -23.6173 2.57
      vertex -12.4406 -33.1078 6.12
      vertex -12.4406 -33.1078 2.57
    endloop
  endfacet
  facet normal -0.126817 -0.991926 0
    outer loop
      vertex -13.8121 -22.9697 2.57
      vertex -12.0045 -23.2008 6.12
      vertex -13.8121 -22.9697 6.12
    endloop
  endfacet
  facet normal -0.126817 -0.991926 -0
    outer loop
      vertex -12.0045 -23.2008 6.12
      vertex -13.8121 -22.9697 2.57
      vertex -12.0045 -23.2008 2.57
    endloop
  endfacet
  facet normal 0.544639 0.83867 -0
    outer loop
      vertex -13.4146 -27.0451 2.57
      vertex -14.9429 -26.0526 6.12
      vertex -13.4146 -27.0451 6.12
    endloop
  endfacet
  facet normal 0.544639 0.83867 0
    outer loop
      vertex -14.9429 -26.0526 6.12
      vertex -13.4146 -27.0451 2.57
      vertex -14.9429 -26.0526 2.57
    endloop
  endfacet
  facet normal 0.995276 0.0970865 0
    outer loop
      vertex -14.9429 -26.0526 6.12
      vertex -15.1198 -24.2389 2.57
      vertex -15.1198 -24.2389 6.12
    endloop
  endfacet
  facet normal 0.995276 0.0970865 0
    outer loop
      vertex -15.1198 -24.2389 2.57
      vertex -14.9429 -26.0526 6.12
      vertex -14.9429 -26.0526 2.57
    endloop
  endfacet
  facet normal 0.69645 -0.717606 0
    outer loop
      vertex -15.1198 -24.2389 2.57
      vertex -13.8121 -22.9697 6.12
      vertex -15.1198 -24.2389 6.12
    endloop
  endfacet
  facet normal 0.69645 -0.717606 0
    outer loop
      vertex -13.8121 -22.9697 6.12
      vertex -15.1198 -24.2389 2.57
      vertex -13.8121 -22.9697 2.57
    endloop
  endfacet
  facet normal -0.854588 -0.519306 0
    outer loop
      vertex -11.0582 -24.7582 2.57
      vertex -12.0045 -23.2008 6.12
      vertex -12.0045 -23.2008 2.57
    endloop
  endfacet
  facet normal -0.854588 -0.519306 0
    outer loop
      vertex -12.0045 -23.2008 6.12
      vertex -11.0582 -24.7582 2.57
      vertex -11.0582 -24.7582 6.12
    endloop
  endfacet
  facet normal -0.316122 0.948719 0
    outer loop
      vertex -11.6857 -26.469 2.57
      vertex -13.4146 -27.0451 6.12
      vertex -11.6857 -26.469 6.12
    endloop
  endfacet
  facet normal -0.316122 0.948719 0
    outer loop
      vertex -13.4146 -27.0451 6.12
      vertex -11.6857 -26.469 2.57
      vertex -13.4146 -27.0451 2.57
    endloop
  endfacet
  facet normal -0.938837 0.344362 0
    outer loop
      vertex -11.6857 -26.469 2.57
      vertex -11.0582 -24.7582 6.12
      vertex -11.0582 -24.7582 2.57
    endloop
  endfacet
  facet normal -0.938837 0.344362 0
    outer loop
      vertex -11.0582 -24.7582 6.12
      vertex -11.6857 -26.469 2.57
      vertex -11.6857 -26.469 6.12
    endloop
  endfacet
  facet normal 0.900969 0.433884 0
    outer loop
      vertex 39 0 6.12
      vertex 38.247 1.56366 0
      vertex 38.247 1.56366 6.12
    endloop
  endfacet
  facet normal 0.900969 0.433884 0
    outer loop
      vertex 38.247 1.56366 0
      vertex 39 0 6.12
      vertex 39 0 0
    endloop
  endfacet
  facet normal 0.222521 0.974928 -0
    outer loop
      vertex 38.247 1.56366 0
      vertex 36.801 1.89371 6.12
      vertex 38.247 1.56366 6.12
    endloop
  endfacet
  facet normal 0.222521 0.974928 0
    outer loop
      vertex 36.801 1.89371 6.12
      vertex 38.247 1.56366 0
      vertex 36.801 1.89371 0
    endloop
  endfacet
  facet normal 0.222521 -0.974928 0
    outer loop
      vertex 36.801 -1.89371 0
      vertex 38.247 -1.56366 6.12
      vertex 36.801 -1.89371 6.12
    endloop
  endfacet
  facet normal 0.222521 -0.974928 0
    outer loop
      vertex 38.247 -1.56366 6.12
      vertex 36.801 -1.89371 0
      vertex 38.247 -1.56366 0
    endloop
  endfacet
  facet normal 0.900969 -0.433884 0
    outer loop
      vertex 38.247 -1.56366 6.12
      vertex 39 0 0
      vertex 39 0 6.12
    endloop
  endfacet
  facet normal 0.900969 -0.433884 0
    outer loop
      vertex 39 0 0
      vertex 38.247 -1.56366 6.12
      vertex 38.247 -1.56366 0
    endloop
  endfacet
endsolid OpenSCAD_Model
